<svg id="e8leVkyFGOB1" xmlns="http://www.w3.org/2000/svg" xmlns:xlink="http://www.w3.org/1999/xlink" viewBox="0 0 225 225" shape-rendering="geometricPrecision" text-rendering="geometricPrecision"><g transform="translate(.019998 0.010005)"><path id="e8leVkyFGOB3" d="M220.6,110.6c0-28.428556-11.2932-55.692751-31.395224-75.794776s-47.36622-31.395224-75.794776-31.395224-55.692751,11.2932-75.794776,31.395224-31.395224,47.36622-31.395224,75.794776s11.2932,55.692751,31.395224,75.794776s47.36622,31.395224,75.794776,31.395224s55.692751-11.2932,75.794776-31.395224s31.395224-47.36622,31.395224-75.794776" fill="none" stroke="#000" stroke-width="10" stroke-dashoffset="673.5" stroke-dasharray="673.5"/><path id="e8leVkyFGOB4" d="M148.14,31.82l-3.79,1.2q-.49.15-.78.58c-1.99,3.04.79,5.13,3.62,4.09c2.04-.74,7.7-4.36,10.83-2.46.4483.274107.713226.769298.692473,1.294347s-.323937.997785-.792473,1.235653c-6.18,3.12-16.79-1.23-20.85,5.64-.161257.271615-.221437.593757-.17.91.74,4.25,4.36,4.12,7.83,3.06c5.06-1.55,11.33-4.5,16.6-4.03.505294.044795.942827.36907,1.132678.83948s.099972,1.007542-.232678,1.39052q-.82.94-2.48,1.2-9.48,1.51-18.97,2.99c-3.87.61-7.14,5.49-2.02,6.99c4.32,1.28,17.56-2.2,23.43-3.43q.47-.1.48.39l.31,16.49c.009455.399385-.280794.745123-.68.81l-16.32,2.56q-.52.09-.68-.42l-4.42-14.09c-.101587-.324301-.394355-.54889-.73-.56q-.81-.04-1.02.52-.13.35.06.96q2.32,7.68,4.72,15.48.15.46.62.38l7.19-1.21c.336722-.056987.682667.034051.95.25q1.77,1.48.59,3.4c-2.36,3.86-11.16,3.53-15.1,2.89q-.51-.09-.61-.59c-2.95-14.95-17.02-18.91-25.04-29.86q-.3-.41-.19-.9q1.42-5.9.71-11.79c-2.19-18.18-21.2-14.2-32.38-8.12q-4.55,2.47-3.94,6.94c.97,7.1,11.13,11.06,17.27,11.61q.5.05.51.55c.11,13.55-3.73,23.98-10.59,35.41-2.67,4.44-2.25,9.09,3.68,9.95q7.82,1.14,14.49-3.43.36-.24.69.03l6.46,5.17q.55.44,1.16.07.71-.44.64-1.23-.05-.51-.43-.84l-5.44-4.71q-.52-.45-.03-.92c4.05-3.9,7.17-10.82,4.16-16.08-2.1-3.67-7.59-4.99-10.46-1.13-3.44,4.61-.71,12.52,2.15,16.76q.35.51-.18.83-5.98,3.65-12.64,2.91c-3-.33-4.4-2.66-2.64-5.27Q96.64,70.11,97.1,50.98q.01-.57.56-.73l1.83-.55q.5-.15.61.36c1.19,5.58,6.33,6.34,10.22,2.79q.37-.33.71.02c8.46,8.58,20.9,15.59,24.09,27.06.051885.183284-.002696.380206-.141532.510627s-.338781.172601-.518468.109373q-5.25-1.74-10.14-4.37c-9.19-4.93-14.73,6.24-10.47,13.5c6.56,11.17,21.74,6.95,23.83-5.62q.08-.51.59-.44c6.44.86,18.75,1.12,17.34-9.03q-.08-.61.53-.7l8.3-1.32q.64-.1.62-.75l-.54-19.8c-.007194-.283803-.142265-.549151-.367503-.721963s-.51651-.234571-.792497-.168037c-5.43,1.3-19.64,5.05-24.44,3.66-.46094-.134024-.799523-.528911-.86049-1.003582s.167443-.937565.58049-1.176418q1.4-.83,2.62-.99q10.17-1.41,20.25-3.31q2.1-.4,2.97-3.34.14-.46-.08-.89-2.23-4.27-7.44-2.63-7.61,2.39-15.08,4.83c-.646354.21312-1.356086.096549-1.900313-.312119s-.8541-1.057736-.829687-1.737881q.07-1.88,2.94-2.43q2.97-.57,12.81-1.23c7.02-.48,7.79-7.96,1.12-7.97-2.97,0-7.23,2.28-10.08,3.57-.311831.131079-.672862.027413-.867648-.249135s-.170798-.6514.057648-.900865c1.9-1.97,6.66-.36,5.38-5.46-.112024-.426036-.518861-.706022-.956806-.658474s-.775214.408323-.793194.848474l-.03,1.29c-.012405.360927-.249039.673764-.59.78" fill-opacity="0" stroke="#000" stroke-width="2" stroke-miterlimit="1" stroke-dashoffset="878.93" stroke-dasharray="878.93"/><path d="M176.69,127.94c-.59,10.07-10.33,8.47-9.24-.27.69-5.55.84-11.17,1.39-16.73.69-7.03,10.85-5.86,8.9,1.55q-.17.67.51.73l3.85.33q.73.07.79-.66l.62-8.18c.012485-.188041-.086632-.362487-.25-.44q-2.19-1.07-3.37.76-.26.4-.64.12c-4.83-3.45-14.24-2.22-15.29,4.35q-.62,3.85-1.29,16.88-.24,4.66,1.01,7.06c2.03,3.88,9.06,6.67,13.1,2.73.119833-.120408.300199-.154694.457499-.086967s.260789.224228.262501.396967v.82c.000166.367766.266972.681157.63.74l1.69.28q.79.13.87-.67L182,124.18q.06-.62-.57-.68l-6.7-.62c-.353563-.028119-.680597.188911-.792045.525626s.021524.706.322045.894374c1.51.92,2.55,1.68,2.43,3.64" fill="none" stroke="#8b8b8b" stroke-width="2" stroke-opacity="0"/><path d="M208.4163,115.1719c.256903-2.29037-.406562-4.588987-1.844441-6.39018s-3.532389-2.957419-5.822759-3.21432l-1.9279-.2162c-2.29037-.256903-4.588987.406562-6.39018,1.844441s-2.957419,3.532389-3.21432,5.822759l-1.973,17.5897c-.256903,2.29037.406562,4.588987,1.844441,6.39018s3.532389,2.957419,5.822759,3.21432l1.9279.2162c2.29037.256903,4.588987-.406562,6.39018-1.844441s2.957419-3.532389,3.21432-5.822759l1.973-17.5897" fill="none" stroke="#8b8b8b" stroke-width="2" stroke-opacity="0"/><path d="" fill="none" stroke="#8b8b8b" stroke-width="2"/></g><path d="M0,0h225v225h-225L0,0ZM220.6,110.6c0-28.428556-11.2932-55.692751-31.395224-75.794776s-47.36622-31.395224-75.794776-31.395224-55.692751,11.2932-75.794776,31.395224-31.395224,47.36622-31.395224,75.794776s11.2932,55.692751,31.395224,75.794776s47.36622,31.395224,75.794776,31.395224s55.692751-11.2932,75.794776-31.395224s31.395224-47.36622,31.395224-75.794776Z" fill="#fff"/><path d="M216.73,110.61c0,57.051015-46.248985,103.3-103.3,103.3-27.396863,0-53.671623-10.883362-73.04413-30.25587s-30.25587-45.647267-30.25587-73.04413s10.883362-53.671623,30.25587-73.04413s45.647267-30.25587,73.04413-30.25587c57.051015,0,103.3,46.248985,103.3,103.3ZM148.14,31.82l-3.79,1.2q-.49.15-.78.58c-1.99,3.04.79,5.13,3.62,4.09c2.04-.74,7.7-4.36,10.83-2.46.4483.274107.713226.769298.692473,1.294347s-.323937.997785-.792473,1.235653c-6.18,3.12-16.79-1.23-20.85,5.64-.161257.271615-.221437.593757-.17.91.74,4.25,4.36,4.12,7.83,3.06c5.06-1.55,11.33-4.5,16.6-4.03.505294.044795.942827.36907,1.132678.83948s.099972,1.007542-.232678,1.39052q-.82.94-2.48,1.2-9.48,1.51-18.97,2.99c-3.87.61-7.14,5.49-2.02,6.99c4.32,1.28,17.56-2.2,23.43-3.43q.47-.1.48.39l.31,16.49c.009455.399385-.280794.745123-.68.81l-16.32,2.56q-.52.09-.68-.42l-4.42-14.09c-.101587-.324301-.394355-.54889-.73-.56q-.81-.04-1.02.52-.13.35.06.96q2.32,7.68,4.72,15.48.15.46.62.38l7.19-1.21c.336722-.056987.682667.034051.95.25q1.77,1.48.59,3.4c-2.36,3.86-11.16,3.53-15.1,2.89q-.51-.09-.61-.59c-2.95-14.95-17.02-18.91-25.04-29.86q-.3-.41-.19-.9q1.42-5.9.71-11.79c-2.19-18.18-21.2-14.2-32.38-8.12q-4.55,2.47-3.94,6.94c.97,7.1,11.13,11.06,17.27,11.61q.5.05.51.55c.11,13.55-3.73,23.98-10.59,35.41-2.67,4.44-2.25,9.09,3.68,9.95q7.82,1.14,14.49-3.43.36-.24.69.03l6.46,5.17q.55.44,1.16.07.71-.44.64-1.23-.05-.51-.43-.84l-5.44-4.71q-.52-.45-.03-.92c4.05-3.9,7.17-10.82,4.16-16.08-2.1-3.67-7.59-4.99-10.46-1.13-3.44,4.61-.71,12.52,2.15,16.76q.35.51-.18.83-5.98,3.65-12.64,2.91c-3-.33-4.4-2.66-2.64-5.27Q96.64,70.11,97.1,50.98q.01-.57.56-.73l1.83-.55q.5-.15.61.36c1.19,5.58,6.33,6.34,10.22,2.79q.37-.33.71.02c8.46,8.58,20.9,15.59,24.09,27.06.051885.183284-.002696.380206-.141532.510627s-.338781.172601-.518468.109373q-5.25-1.74-10.14-4.37c-9.19-4.93-14.73,6.24-10.47,13.5c6.56,11.17,21.74,6.95,23.83-5.62q.08-.51.59-.44c6.44.86,18.75,1.12,17.34-9.03q-.08-.61.53-.7l8.3-1.32q.64-.1.62-.75l-.54-19.8c-.007194-.283803-.142265-.549151-.367503-.721963s-.51651-.234571-.792497-.168037c-5.43,1.3-19.64,5.05-24.44,3.66-.46094-.134024-.799523-.528911-.86049-1.003582s.167443-.937565.58049-1.176418q1.4-.83,2.62-.99q10.17-1.41,20.25-3.31q2.1-.4,2.97-3.34.14-.46-.08-.89-2.23-4.27-7.44-2.63-7.61,2.39-15.08,4.83c-.646354.21312-1.356086.096549-1.900313-.312119s-.8541-1.057736-.829687-1.737881q.07-1.88,2.94-2.43q2.97-.57,12.81-1.23c7.02-.48,7.79-7.96,1.12-7.97-2.97,0-7.23,2.28-10.08,3.57-.311831.131079-.672862.027413-.867648-.249135s-.170798-.6514.057648-.900865c1.9-1.97,6.66-.36,5.38-5.46-.112024-.426036-.518861-.706022-.956806-.658474s-.775214.408323-.793194.848474l-.03,1.29c-.012405.360927-.249039.673764-.59.78Zm10.4644,28.0694c-.008169-.089821-.051691-.172716-.120989-.230443s-.158692-.085553-.248511-.077357l-.2987.0272c-.187003.017011-.324809.182397-.3078.3694l.6072,6.6724c.008169.089821.051691.172716.120989.230443s.158692.085553.248511.077357l.2987-.0272c.187003-.017011.324809-.182397.3078-.3694l-.6072-6.6724Zm-5.5836,7.6284c.295678-.038942.315646-1.739492.0446-3.7983-.130171-.988732-.31142-1.929532-.503872-2.615417s-.380341-1.060664-.522328-1.041883c-.295678.038942-.315646,1.739492-.0446,3.7983.130171.988732.31142,1.929532.503872,2.615417s.380341,1.060664.522328,1.041883Zm-5.0125,2.5152c.148664-.027472.202915-.530392.150816-1.398115s-.206277-2.029159-.428616-3.228785-.494632-2.339217-.756962-3.167973-.493209-1.278804-.641838-1.251127c-.148664.027472-.202915.530392-.150816,1.398115s.206277,2.029159.428616,3.228785.494632,2.339217.756962,3.167973.493209,1.278804.641838,1.251127ZM206.63,102.16q-5.11-3.37-10.81-1.48-.6.2-.78.57-.23.49.04,1.16c.108623.278163.409644.426492.69.34q5.5-1.65,10.13,1.47c.217621.143056.496098.155487.7256.032391s.373193-.361963.3744-.622391v-.77q0-.45-.37-.7ZM99.54,115.95c-.133409.023563-.270421-.012878-.374495-.099607s-.164625-.214922-.165505-.350393v-11.18q0-.47.33-.8l1.38-1.38c.150689-.148789.196097-.374095.114804-.569638s-.273046-.322253-.484804-.320362l-8.15.01c-.232697.004075-.440423.146848-.527609.362633s-.036944.462787.127609.627367l1.72,1.65q.35.33.36.81l.88,27.26q.02.57-.42.95l-1.71,1.47c-.21767.185012-.294089.487692-.19033.753857s.364872.437265.65033.426143l8.25-.3q1.02-.04.29-.75l-2.11-2.04c-.147727-.141556-.23392-.33549-.24-.54l-.07-12.77q-.01-.61.61-.64c5.84-.23,6.17,7.75,7.1,11.92.91,4.05,3.09,6.6,7.4,4.43.347997-.172458.557796-.537607.531525-.925103s-.283435-.720987-.651525-.844897c-4.29-1.5-2.28-12.65-7.17-15.99q-.46-.31-.27-.84l4.42-12.27c.039515-.111321.108461-.211292.2-.29q.67-.56,1.55-.76c.448363-.112217.755274-.525197.733405-.986872s-.366442-.843795-.823405-.913128c-11.21-1.42-5.75,13.43-13.29,14.89Zm43.01,12q-2.28-13.21-6.45-25.96-.17-.53-.72-.55l-7.22-.27c-.25996-.014496-.501282.13497-.604114.374166s-.045263.517157.144114.695834l1.53,1.51q.31.3.3.73-.07,11.57-.35,23.15c-.06,2.46.6,4.95-2,6.24-.352048.180452-.538073.57831-.45023.962921s.426745.656102.82023.657079l6.48.01c.228047-.00136.433356-.14199.515607-.353174s.024271-.448834-.145607-.596826l-1.96-1.76c-.18239-.157088-.282032-.389588-.27-.63.42-8.48,1.11-17.3.15-25.73q-.02-.14.09-.17.05-.01.11-.01.17.02.23.25l7.21,28.52c.084817.342065.378716.591678.73.62l4.32.4q.62.06.65-.56l1.29-30.5c.025279-.493178.370579-.9116.85-1.03q1.34-.32,1.21-1.73-.05-.47-.52-.47h-6.53c-.226526-.002393-.428636.138069-.50668.352134s-.015546.456536.15668.607866l1.73,1.46q.24.2.23.51l-.73,23.25c-.012338.067442-.068833.117934-.137231.122651s-.13129-.037542-.152769-.102651Zm-67.63-5.56c7.5-1.42,4.85,18.52,14.61,12.86.263293-.149975.384329-.467174.29-.76q-.35-1.11-1.6-1.36c-.293739-.062583-.537006-.264681-.65-.54l-3.97-9.57c-.10462-.248083-.282151-.460425-.51-.61l-.93-.62c-.135424-.095076-.209487-.256127-.192764-.419171s.121522-.301679.272764-.360829c4.81-1.95,4.25-5.72,4.26-10.1.03-11.73-11.85-9.04-19.43-8.58-.269681.017883-.50221.196048-.589643.451789s-.012646.538971.189643.718211l1.62,1.43c.179032.152734.287544.376992.3.62l1.63,27.71q.03.52-.39.84l-1.46,1.13c-.255915.200389-.353626.542815-.241999.848082s.407183.503886.731999.491918l8.03-.39c.249739-.009275.466824-.171182.548268-.40891s.010859-.503445-.178268-.67109l-2.04-1.77c-.133896-.107641-.214225-.268298-.22-.44L74.45,123q-.03-.51.47-.61Zm-26.15,6.42l7.96-.63c.361264-.027389.689537.204085.78.55l1.52,5.64q.13.46-.18.82l-1.11,1.33c-.127596.152625-.152574.366371-.063608.544304s.27495.286197.473608.275696l7.33-.44c.410692-.02343.754596-.319462.838869-.722097s-.112046-.811738-.478869-.997903l-.95-.49q-.61-.31-.82-.96l-9.5-29.6q-.33-1.04-1.42-.94l-3.38.31c-.390527.034195-.705916.337135-.76.73l-4.62,31.69c-.043858.265432-.228345.484511-.48.57q-1.16.37-.88,1.66.1.47.58.42l5.49-.53c.261098-.027305.475443-.218598.532152-.474922s-.056939-.520182-.282152-.655078l-1.59-.94c-.224882-.134396-.347099-.390659-.31-.65l.8-6.03q.06-.45.52-.48Zm127.92-.87c-.59,10.07-10.33,8.47-9.24-.27.69-5.55.84-11.17,1.39-16.73.69-7.03,10.85-5.86,8.9,1.55q-.17.67.51.73l3.85.33q.73.07.79-.66l.62-8.18c.012485-.188041-.086632-.362487-.25-.44q-2.19-1.07-3.37.76-.26.4-.64.12c-4.83-3.45-14.24-2.22-15.29,4.35q-.62,3.85-1.29,16.88-.24,4.66,1.01,7.06c2.03,3.88,9.06,6.67,13.1,2.73.119833-.120408.300199-.154694.457499-.086967s.260789.224228.262501.396967v.82c.000166.367766.266972.681157.63.74l1.69.28q.79.13.87-.67L182,124.18q.06-.62-.57-.68l-6.7-.62c-.353563-.028119-.680597.188911-.792045.525626s.021524.706.322045.894374c1.51.92,2.55,1.68,2.43,3.64Zm31.7263-12.7681c.256903-2.29037-.406562-4.588987-1.844441-6.39018s-3.532389-2.957419-5.822759-3.21432l-1.9279-.2162c-2.29037-.256903-4.588987.406562-6.39018,1.844441s-2.957419,3.532389-3.21432,5.822759l-1.973,17.5897c-.256903,2.29037.406562,4.588987,1.844441,6.39018s3.532389,2.957419,5.822759,3.21432l1.9279.2162c2.29037.256903,4.588987-.406562,6.39018-1.844441s2.957419-3.532389,3.21432-5.822759l1.973-17.5897ZM22.4,138.58q-1.19.46-1.43,1.67-.16.82.67.74q5.42-.49,12.42-1.64c5.92-.97,5.9-5.62,5.21-10.76-.49-3.74-.4-5.95-3.71-7.34-.188315-.080685-.32148-.253658-.350232-.454928s.051181-.400912.210232-.525072c2.39-1.91,1.57-6.35.78-10.27-1.38-6.91-13.56-3.77-18.42-2.92-.339775.053407-.602925.325677-.644729.667074s.147878.669116.464729.802926l1.44.63q.46.2.52.7l3.38,27.81c.047237.383051-.175497.75015-.54.89Zm101.26-22.15q-3.07-2.43-6.36-.71c-.532215.268015-.856209.955385-.723661,1.535284s.671446.832731,1.203661.564716l1.63-.76q.52-.24,1.02.04q2.7,1.56,5.75,1.23c.29931-.037774.567734-.197377.74-.44q.75-1.07-.02-1.89-.35-.37-.81-.16l-1.49.7c-.307528.141013-.669521.098652-.94-.11Zm32.59,1.19c-1.71-1.1-6.89-2.16-6.16,1.28.033562.170168.142743.315877.29761.397182s.339173.089677.50239.022818l1.97-.81c.239261-.093768.51008-.067799.73.07q2.96,1.9,5.66,1.22q1.4-.36.92-1.99-.14-.47-.63-.4l-2.45.39q-.45.07-.84-.18Zm-63.7,31.52c-.065248-.036975-.107166-.104642-.111214-.179529s.030332-.146678.091214-.190471l2.56-1.88c.17426-.124845.247304-.346621.181831-.552071s-.255015-.349235-.471831-.357929q-1.95-.07-3.12,1.5c-.131644.178001-.363094.25074-.572896.180046s-.350032-.268673-.347104-.490046l-.01-6.22c-.004665-.373152-.29741-.679005-.67-.7q-.67-.04-1.09.41-.4.44-.4,1.42.03,6.16,1.05,12.24.14.81.87.44l.62-.31q.51-.25.41-.81l-.41-2.4q-.19-1.09.67-.39l3.63,3c.403053.33898,1.062433.408493,1.513197.159525s.54088-.732448.206803-1.109525q-2-2.32-4.6-3.76Zm27.19.07q.38-.59,1.08-.68c.355168-.039363.645274-.30163.720147-.65104s-.082294-.707521-.390147-.88896q-1.03-.6-.91-1.79c.026886-.245908.201936-.45011.440846-.514261s.492704.024897.639154.224261l.95,1.29c.130792.181367.358369.265497.575682.212815s.381101-.231688.414318-.452815l.78-4.94c.043825-.308235-.127278-.606863-.415357-.724928s-.619546-.025408-.804643.224928q-.59.82-.58,1.87c-.000029.177705-.041114.352316-.12.51q-.37.73-1.03.61-.56-.09-1.04.2-1.94,1.18-1.03,3.25c.131635.30125.045664.653323-.21.86-1.74,1.45-.39,2.91,1.22,3.5q.54.19.38.74l-.45,1.58c-.081955.37668.134992.754144.501722.872944s.763797-.059758.918278-.412944l1.45-4.05c.058201-.16823.018521-.354854-.10309-.484852s-.305178-.182017-.47691-.135148l-1.93.56c-.207685.058775-.430086-.01686-.558879-.190064s-.137198-.407965-.021121-.589936Zm12.86-6.46l-1.3,11.07q-.07.61.53.75l.66.15q.68.16.78-.53l1.47-11.23q.09-.71.8-.71h2.31c.27898-.001395.515953-.204516.56-.48l.09-.5q.09-.49-.41-.57-4.87-.78-8.53.55-.99.37-.76,1.45c.038698.175333.15037.325823.306966.41367s.343234.104701.513034.04633l2.44-.84q.61-.21.54.43Zm-39.24-.01l-1.12,1.45c-.091523.124475-.096067.292715-.011396.421949s.240728.192252.391396.158051q1.28-.32,1.67-1.53c.080982-.250183-.029067-.525-.259938-.649124s-.514552-.06099-.670062.149124Zm-41.57,1.62q-4.13-1.85-8.36.45-.64.35-.13.87l.63.62c.21136.218316.326596.510007.32.81q-.12,5.08.8,10.09.3,1.59,1.71,1.03c.726807-.295009,1.133337-1.069958.96-1.83l-.53-2.29c-.08504-.388117.117229-.780013.48-.93c2.66-1.11,10.74-5.85,4.12-8.82Zm22.23,6.34c-.64-3.42,2.6-3.48,4.08-5.46.268618-.368531.250737-.872881-.043306-1.221463s-.788164-.451205-1.196694-.248537c-12.22,6.27,1.34,16.02,3.39,8.61.071398-.26176-.048214-.53804-.287948-.665099s-.535517-.070939-.712052.135099c-1.69,1.95-4.74,1.51-5.23-1.15Zm93.9.62l2.81.07c.256625.00211.489695-.149278.592101-.384595s.054344-.50905-.122101-.695405q-.89-.91-2.19-.53c-.289632.086157-.603096.001768-.810328-.218152s-.272867-.53784-.169672-.821848l1.43-3.95c.060547-.174345.034505-.367099-.070137-.519126s-.275391-.245178-.459863-.250874l-1.3-.03c-.245745-.007425-.465159.158171-.53.4-.69,2.46-.21,5.26-3.54,5.43q-1.28.07-1.01,1.35.09.45.55.38l1.91-.31c.119634-.017279.240912.017823.332823.09633s.14554.192806.147177.31367q.03,4.43.01,8.85q0,.9.96.69.6-.14.62-.75l.24-8.55c.01087-.321931.277935-.575643.6-.57Zm-59.13-5.37q1.87.27,3.46,1.36c.110712.07713.250192.100511.380004.063698s.236255-.129932.289996-.253698c1.17-2.64-6.75-4.84-7.28.24-.037156.372193.157222.729215.49.9l3.92,1.96c.398649.199149.663755.592669.698559,1.036933s-.165786.874267-.528559,1.133067q-.78.54-1.84.3-.53-.12-.83-.57-.33-.49-.62-.45c-.562836.077435-1.001947.529994-1.061435,1.093943s.276199,1.091847.811435,1.276057c2.77.98,6.85-.21,6.28-3.71q-.09-.51-.55-.74l-4.11-2.08c-.358073-.18533-.531165-.601182-.410341-.985844s.500609-.626855.900341-.574156Zm-7.16,6.37c-.263726-.109159-.445712-.355914-.471034-.638672s.110302-.553721.351034-.701328l3.08-1.94c.279479-.173409.446721-.485087.44-.82q-.05-2.2-1.96-3.22c-6.73-3.58-7.33,10.65.85,8.87q1.08-.24,1.05-1.37c-.007083-.205041-.125723-.389795-.309227-.481547s-.40249-.075812-.570773.041547q-1.15.8-2.46.26Zm39.92-5.77c-.02-.78-.02-1.32-.61-1.81q-.56-.45-1.26-.09-.45.23-.41.74l.64,9.1c.015981.187186.11877.356117.276775.45487s.352321.115513.523225.04513l1.12-.45q.6-.25.42-.87-1.43-4.84,3.2-6.79c.400876-.174731.612626-.617321.49714-1.039098s-.523168-.69476-.95714-.640902q-1.7.23-2.61,1.59c-.114854.160802-.319777.232584-.508331.178063s-.318228-.223055-.321669-.418063Zm-55.53-.17c.440983.089738.735602.507639.67196.953137s-.463489.76419-.91196.726863q-4.12-.22-5.08,3.61c-.075959.292854-.021187.603226.15.85q1.55,2.19,4.26,1.96.31-.02.55.16l1.09.78c.136975.099175.316217.117229.471987.047542s.265147-.216859.288013-.387542q.46-3.78.71-7.58c.24-3.6-4.4-3.23-6.13-1.97-.208395.151391-.337083.390384-.35.65q-.05,1.23.88,1.11c1.28-.16,1.94-1.25,3.4-.91Zm-19.53,6.58c4.47-.62,7.72-5.69.75-6.31-.313242-.03072-.580545-.232165-.69-.52q-.26-.68-1.01-.86-.55-.13-.88.32c-.97,1.3-.33,2.31-.4,3.46q-.33,5.39.53,9.38.31,1.41,1.72,1.3c.142845-.01373.272796-.088147.355539-.203603s.109959-.26034.074461-.396397l-1.27-4.96c-.067982-.270668-.017342-.557482.139219-.788504s.404191-.384339.680781-.421496Zm-7.9.94l-1.2-6.75q-.07-.37-.45-.39-.62-.03-1.05.26-.53.35-.58,1.29-.2,4.1,2.27,7.29c.208431.272176.527423.437172.87.45c6.44.27,5.61-11.27,2-10.22-.242184.067304-.436271.248581-.51993.485613s-.046355.499976.09993.704387q2.53,3.54-.01,7.19c-.181459.265026-.505316.393805-.81922.325756s-.555359-.319378-.61078-.635756Zm90.99-1.58l3.17-1.56q1.59-.78.81-2.36c-2.56-5.19-8.19-2.26-6.69,3.36q1.19,4.43,5.57,3.39.54-.13.56-.69q0-.12,0-.25c.003553-.187507-.077959-.366546-.221712-.486988s-.3343-.169344-.518288-.133012c-.72.15-1.24.52-1.96.29q-.78-.24-.98-.99-.11-.39.26-.57Zm10.51-2.71q-3.61-.88-5.62,1.91c-.530954.739568-.623519,1.707908-.242124,2.532882s1.177406,1.378218,2.082124,1.447118q2.06.16,3.34,1.79c.061239.080085.163254.117549.261768.096133s.175769-.097852.198232-.196133l1.97-7.96c.291597-1.193138-.353307-2.414156-1.5-2.84q-2.3-.86-4.51.41c-.181131.100959-.310778.274189-.35657.476437s-.003408.414428.11657.583563q.26.35.8.41.3.03.74-.19q1.98-1,3.26.72c.126431.175886.130587.411723.010433.591955s-.33945.267102-.550433.218045Zm13.93,6.79l-1.19-1.19q-.35-.35-.78-.1c-.76.44-.76,1.44-.11,2q2.71,2.37,6.04-.15c.547043-.416584.860591-1.070654.842763-1.758026s-.364861-1.324308-.932763-1.711974l-3.48-2.38c-.405929-.248528-.533528-.779071-.285-1.185s.779071-.533528,1.185-.285l3.16,1.71c.230993.124841.516327.084985.70427-.098374s.234831-.467622.11573-.701626c-2.22-4.41-8.78-2.03-7,.99.7,1.2,3.1,2.13,4.4,3.18q.64.51-.08.92l-1.62.89c-.313611.177567-.708917.124587-.97-.13Zm1.68,8.46c-25.1,7.41-49.8.99-74.7-2.07-18.17-2.23-36.44-1.21-51.75,7.47-.181143.102687-.313708.273539-.368177.474513s-.026321.415383.078177.595487l.79,1.36c.106649.184254.335223.254585.52.16q16.13-8.13,33.74-7.95c33.44.34,60.55,11.54,92.03,2.96q.58-.16.54-.76l-.09-1.69c-.009996-.185674-.105449-.356263-.259269-.463353s-.349215-.13899-.530731-.086647Z" opacity="0" fill="#fff"/><path d="M148.73,31.04l.03-1.29c.01798-.440151.35525-.800925.793194-.848474s.844782.232438.956806.658474c1.28,5.1-3.48,3.49-5.38,5.46-.228446.249465-.252434.624317-.057648.900865s.555817.380214.867648.249135c2.85-1.29,7.11-3.57,10.08-3.57c6.67.01,5.9,7.49-1.12,7.97q-9.84.66-12.81,1.23-2.87.55-2.94,2.43c-.024413.680145.285459,1.329212.829687,1.737881s1.253959.525239,1.900313.312119q7.47-2.44,15.08-4.83q5.21-1.64,7.44,2.63.22.43.08.89-.87,2.94-2.97,3.34-10.08,1.9-20.25,3.31-1.22.16-2.62.99c-.413047.238853-.641457.701747-.58049,1.176418s.39955.869558.86049,1.003582c4.8,1.39,19.01-2.36,24.44-3.66.275987-.066534.56726-.004774.792497.168037s.360309.43816.367503.721963l.54,19.8q.02.65-.62.75l-8.3,1.32q-.61.09-.53.7c1.41,10.15-10.9,9.89-17.34,9.03q-.51-.07-.59.44c-2.09,12.57-17.27,16.79-23.83,5.62-4.26-7.26,1.28-18.43,10.47-13.5q4.89,2.63,10.14,4.37c.179687.063228.379632.021048.518468-.109373s.193417-.327343.141532-.510627c-3.19-11.47-15.63-18.48-24.09-27.06q-.34-.35-.71-.02c-3.89,3.55-9.03,2.79-10.22-2.79q-.11-.51-.61-.36l-1.83.55q-.55.16-.56.73-.46,19.13-11.59,35.55c-1.76,2.61-.36,4.94,2.64,5.27q6.66.74,12.64-2.91.53-.32.18-.83c-2.86-4.24-5.59-12.15-2.15-16.76c2.87-3.86,8.36-2.54,10.46,1.13c3.01,5.26-.11,12.18-4.16,16.08q-.49.47.03.92l5.44,4.71q.38.33.43.84.07.79-.64,1.23-.61.37-1.16-.07l-6.46-5.17q-.33-.27-.69-.03-6.67,4.57-14.49,3.43c-5.93-.86-6.35-5.51-3.68-9.95c6.86-11.43,10.7-21.86,10.59-35.41q-.01-.5-.51-.55c-6.14-.55-16.3-4.51-17.27-11.61q-.61-4.47,3.94-6.94c11.18-6.08,30.19-10.06,32.38,8.12q.71,5.89-.71,11.79-.11.49.19.9c8.02,10.95,22.09,14.91,25.04,29.86q.1.5.61.59c3.94.64,12.74.97,15.1-2.89q1.18-1.92-.59-3.4c-.267333-.215949-.613278-.306987-.95-.25l-7.19,1.21q-.47.08-.62-.38-2.4-7.8-4.72-15.48-.19-.61-.06-.96.21-.56,1.02-.52c.335645.01111.628413.235699.73.56l4.42,14.09q.16.51.68.42l16.32-2.56c.399206-.064877.689455-.410615.68-.81l-.31-16.49q-.01-.49-.48-.39c-5.87,1.23-19.11,4.71-23.43,3.43-5.12-1.5-1.85-6.38,2.02-6.99q9.49-1.48,18.97-2.99q1.66-.26,2.48-1.2c.33265-.382978.42253-.920111.232678-1.39052s-.627384-.794685-1.132678-.83948c-5.27-.47-11.54,2.48-16.6,4.03-3.47,1.06-7.09,1.19-7.83-3.06-.051437-.316243.008743-.638385.17-.91c4.06-6.87,14.67-2.52,20.85-5.64.468536-.237868.77172-.710604.792473-1.235653s-.244173-1.02024-.692473-1.294347c-3.13-1.9-8.79,1.72-10.83,2.46-2.83,1.04-5.61-1.05-3.62-4.09q.29-.43.78-.58l3.79-1.2c.340961-.106236.577595-.419073.59-.78Zm-48.6,12.74l1.02-.04q.6-.02.65.57c.19,2.33,1.19,12.33,6.6,7c2.87-2.84,2.6-12.43,1.45-16.16-3.82-12.44-20.79-7.28-28.62-2.37-1.84,1.15-2.08,3.07-1.77,5.03q.09.52.44.9q7.51,8.19,18.94,7.18.66-.05.66-.72v-.74q0-.63.63-.65Zm5.14,28.47c-3.98-2.77-5.79,2.94-5.37,5.79q.66,4.44,3.04,8.3.25.41.59.07c3.43-3.46,6.87-10.58,1.74-14.16Zm29.2,10.74q-6.45-2.15-12.71-5.14c-4.77-2.27-7.55,3.87-7,7.36c1.19,7.52,9.56,10.52,15.96,6.58c2.67-1.65,3.71-4.36,4.56-7.26q.33-1.16-.81-1.54Z" fill="#171717" fill-opacity="0"/><path d="M90.07,31.55c4.01-1.25,10.33,1.3,10.05,6.14-.034024.497684-.410456.904298-.904044.97653s-.970749-.209465-1.145956-.67653q-1.93-5.21-7.69-4.09-.68.13-.71-.56l-.06-1.14c-.012691-.293462.175851-.559881.46-.65Z" fill="#171717" fill-opacity="0"/><path id="e8leVkyFGOB12" d="M99.54,115.95c7.54-1.46,2.08-16.31,13.29-14.89.456963.069333.801536.451453.823405.913128s-.285042.874655-.733405.986872q-.88.2-1.55.76c-.091539.078708-.160485.178679-.2.29l-4.42,12.27q-.19.53.27.84c4.89,3.34,2.88,14.49,7.17,15.99.36809.12391.625254.4574.651525.844897s-.183528.752645-.531525.925103c-4.31,2.17-6.49-.38-7.4-4.43-.93-4.17-1.26-12.15-7.1-11.92q-.62.03-.61.64l.07,12.77c.00608.20451.092273.398444.24.54l2.11,2.04q.73.71-.29.75l-8.25.3c-.285458.011122-.546571-.159977-.65033-.426143s-.02734-.568845.19033-.753857l1.71-1.47q.44-.38.42-.95l-.88-27.26q-.01-.48-.36-.81l-1.72-1.65c-.164553-.16458-.214795-.411583-.127609-.627367s.294912-.358558.527609-.362633l8.15-.01c.211758-.001891.403511.12482.484804.320362s.035885.420849-.114804.569638l-1.38,1.38q-.33.33-.33.8v11.18c.00088.135471.061432.263665.165505.350393s.241086.12317.374495.099607Z" opacity="0.22" fill="#171717"/><path id="e8leVkyFGOB13" d="M142.55,127.95c.021479.065109.084371.107369.152769.102651s.124893-.055209.137231-.122651l.73-23.25q.01-.31-.23-.51l-1.73-1.46c-.172226-.15133-.234725-.393802-.15668-.607866s.280154-.354527.50668-.352134h6.53q.47,0,.52.47.13,1.41-1.21,1.73c-.479421.1184-.824721.536822-.85,1.03l-1.29,30.5q-.03.62-.65.56l-4.32-.4c-.351284-.028322-.645183-.277935-.73-.62l-7.21-28.52q-.06-.23-.23-.25-.06,0-.11.01-.11.03-.09.17c.96,8.43.27,17.25-.15,25.73-.012032.240412.08761.472912.27.63l1.96,1.76c.169878.147992.227857.385642.145607.596826s-.28756.351814-.515607.353174l-6.48-.01c-.393485-.000977-.732386-.272467-.82023-.657079s.098182-.782469.45023-.962921c2.6-1.29,1.94-3.78,2-6.24q.28-11.58.35-23.15.01-.43-.3-.73l-1.53-1.51c-.189377-.178677-.246946-.456638-.144114-.695834s.344154-.388662.604114-.374166l7.22.27q.55.02.72.55q4.17,12.75,6.45,25.96Z" opacity="0.22" fill="#171717"/><path id="e8leVkyFGOB14" d="M74.45,123l.55,9.89c.005775.171702.086104.332359.22.44l2.04,1.77c.189127.167645.259712.433362.178268.67109s-.298529.399635-.548268.40891l-8.03.39c-.324816.011968-.620371-.186652-.731999-.491918s-.013916-.647693.241999-.848082l1.46-1.13q.42-.32.39-.84l-1.63-27.71c-.012456-.243008-.120968-.467266-.3-.62l-1.62-1.43c-.202289-.17924-.277076-.462471-.189643-.718211s.319962-.433906.589643-.451789c7.58-.46,19.46-3.15,19.43,8.58-.01,4.38.55,8.15-4.26,10.1-.151242.05915-.256042.197785-.272764.360829s.05734.324095.192764.419171l.93.62c.227849.149575.40538.361917.51.61l3.97,9.57c.112994.275319.356261.477417.65.54q1.25.25,1.6,1.36c.094329.292826-.026707.610025-.29.76-9.76,5.66-7.11-14.28-14.61-12.86q-.5.1-.47.61Zm-.9-17.73l.73,13.9c.002539.086702.040165.168659.104262.2271s.149171.088358.235738.0829l2.65-.14c1.267233-.066218,2.455742-.640988,3.303599-1.597641s1.285472-2.216668,1.216401-3.502359l-.25-4.85c-.141836-2.674779-2.393825-4.729775-5.03-4.59l-2.66.14c-.172809.010726-.305743.156954-.3.33Z" opacity="0.22" fill="#171717"/><path id="e8leVkyFGOB15" d="M48.25,129.29l-.8,6.03c-.037099.259341.085118.515604.31.65l1.59.94c.225213.134896.338861.398754.282152.655078s-.271054.447617-.532152.474922l-5.49.53q-.48.05-.58-.42-.28-1.29.88-1.66c.251655-.085489.436142-.304568.48-.57l4.62-31.69c.054084-.392865.369473-.695805.76-.73l3.38-.31q1.09-.1,1.42.94l9.5,29.6q.21.65.82.96l.95.49c.366823.186165.563141.595268.478869.997903s-.428177.698667-.838869.722097l-7.33.44c-.198658.010501-.384641-.097763-.473608-.275696s-.063988-.391679.063608-.544304l1.11-1.33q.31-.36.18-.82l-1.52-5.64c-.090463-.345915-.418736-.577389-.78-.55l-7.96.63q-.46.03-.52.48Zm.55-3.63c-.016189.098619.014626.199138.083304.27174s.167331.108949.266696.09826l6.77-.56c.098362-.0073.187861-.059551.242573-.141618s.06852-.184779.037427-.278382l-4.6-14.5c-.038332-.153601-.183219-.256086-.340817-.241076s-.280534.143001-.289183.301076L48.8,125.66Z" opacity="0.22" fill="#171717"/><path id="e8leVkyFGOB16" d="M167.45,127.67c-1.09,8.74,8.65,10.34,9.24.27.12-1.96-.92-2.72-2.43-3.64-.300521-.188374-.433493-.557659-.322045-.894374s.438482-.553745.792045-.525626l6.7.62q.63.06.57.68l-1.31,13.47q-.08.8-.87.67l-1.69-.28c-.363028-.058843-.629834-.372234-.63-.74v-.82c-.001712-.172739-.1052-.329241-.262501-.396967s-.337666-.033441-.457499.086967c-4.04,3.94-11.07,1.15-13.1-2.73q-1.25-2.4-1.01-7.06.67-13.03,1.29-16.88c1.05-6.57,10.46-7.8,15.29-4.35q.38.28.64-.12q1.18-1.83,3.37-.76c.163368.077513.262485.251959.25.44l-.62,8.18q-.06.73-.79.66l-3.85-.33q-.68-.06-.51-.73c1.95-7.41-8.21-8.58-8.9-1.55-.55,5.56-.7,11.18-1.39,16.73Z" opacity="0.22" fill="#171717"/><path d="M73.55,105.27c-.005743-.173046.127191-.319274.3-.33l2.66-.14c2.636175-.139775,4.888164,1.915221,5.03,4.59l.25,4.85c.069071,1.285691-.368544,2.545706-1.216401,3.502359s-2.036366,1.531423-3.303599,1.597641l-2.65.14c-.086567.005458-.171642-.024459-.235738-.0829s-.101723-.140398-.104262-.2271l-.73-13.9Zm4.8677,2.5106c-.012619-.185229-.098306-.357858-.238209-.479908s-.322563-.183522-.507791-.170892l-.0599.0041c-.385681.02633-.677001.360317-.6507.746l.6012,8.8195c.012619.185229.098306.357858.238209.479908s.322563.183522.507791.170892l.0599-.0041c.385681-.02633.677001-.360317.6507-.746l-.6012-8.8195Z" fill="#fff"/><path id="e8leVkyFGOB18" d="M206.4433,132.7616c-.256901,2.29037-1.413126,4.38488-3.21432,5.822759s-4.09981,2.101344-6.39018,1.844441l-1.9279-.2162c-2.29037-.256901-4.38488-1.413126-5.822759-3.21432s-2.101344-4.09981-1.844441-6.39018l1.973-17.5897c.256901-2.29037,1.413126-4.38488,3.21432-5.822759s4.09981-2.101344,6.39018-1.844441l1.9279.2162c2.29037.256901,4.38488,1.413126,5.822759,3.21432s2.101344,4.09981,1.844441,6.39018l-1.973,17.5897Zm-2.8307-19.0898c.290554-2.473758-1.479249-4.714688-3.953-5.0053l-.3178-.0374c-1.187958-.139557-2.382699.198516-3.321394.939847s-1.54445,1.825195-1.684006,3.013153l-2.289,19.4861c-.290554,2.473758,1.479249,4.714688,3.953,5.0053l.3178.0374c1.187958.139557,2.382699-.198516,3.321394-.939847s1.54445-1.825195,1.684006-3.013153l2.289-19.4861Z" opacity="0.22" fill="#171717" stroke-opacity="0"/><path id="e8leVkyFGOB19" d="M22.94,137.69l-3.38-27.81q-.06-.5-.52-.7l-1.44-.63c-.316851-.13381-.506533-.461529-.464729-.802926s.304954-.613667.644729-.667074c4.86-.85,17.04-3.99,18.42,2.92.79,3.92,1.61,8.36-.78,10.27-.159051.12416-.238985.323802-.210232.525072s.161917.374243.350232.454928c3.31,1.39,3.22,3.6,3.71,7.34.69,5.14.71,9.79-5.21,10.76q-7,1.15-12.42,1.64-.83.08-.67-.74.24-1.21,1.43-1.67c.364503-.13985.587237-.506949.54-.89Zm1.49-27.87l1.22,10.51c.025029.210921.132908.40323.299857.534539s.379264.190836.590143.165461l2.48-.29c.927554-.107069,1.772137-.599217,2.347895-1.368145s.835514-1.751629.722105-2.731855l-.54-4.71c-.113542-.981105-.591601-1.879213-1.328803-2.496361s-1.673026-.902674-2.601197-.793639l-2.48.29c-.212734.02257-.407566.129404-.540977.296636s-.194284.380933-.169023.593364Zm1.74,13.83l1.36,13.62c.015799.150824.1488.261657.3.25l3.09-.31c2.340189-.233056,4.059054-2.216018,3.84-4.43l-.62-6.15c-.219568-2.212171-2.291221-3.818485-4.63-3.59l-3.09.31c-.150824.015799-.261657.1488-.25.3Z" opacity="0.32" fill="#171717" stroke-width="0"/><path d="M201.3236,133.1579c-.139556,1.187958-.745312,2.271822-1.684006,3.013153s-2.133436,1.079404-3.321394.939847l-.3178-.0374c-2.473751-.290612-4.243554-2.531542-3.953-5.0053l2.289-19.4861c.139556-1.187958.745312-2.271822,1.684006-3.013153s2.133436-1.079404,3.321394-.939847l.3178.0374c2.473751.290612,4.243554,2.531542,3.953,5.0053l-2.289,19.4861ZM200.89,113.411c.044385-.389576-.235428-.741379-.625-.7858l-.0795-.009c-.389576-.044385-.741379.235428-.7858.625L197.07,133.689c-.044385.389576.235428.741379.625.7858l.0795.009c.389576.044385.741379-.235428.7858-.625L200.89,113.411Z" fill="#fff"/><path d="M24.43,109.82c-.025261-.212431.035613-.426131.169023-.593364s.328243-.274066.540977-.296636l2.48-.29c.928171-.109035,1.863996.17649,2.601197.793639s1.215261,1.515256,1.328803,2.496361l.54,4.71c.113409.980226-.146346,1.962927-.722105,2.731855s-1.420341,1.261076-2.347895,1.368145l-2.48.29c-.210879.025375-.423194-.034153-.590143-.165461s-.274828-.323618-.299857-.534539l-1.22-10.51Zm4.4631,8.4786c.208859-.016748.379339-.403552.473934-1.075314s.105553-1.573449.030466-2.506686-.230071-1.82154-.430849-2.46952-.430904-1.002541-.639751-.98568c-.208859.016748-.379339.403552-.473934,1.075314s-.105553,1.573449-.030466,2.506686.230071,1.82154.430849,2.46952.430904,1.002541.639751.98568Z" fill="#fff"/><path d="M48.8,125.66l2.17-15.05c.008649-.158075.131585-.286067.289183-.301076s.302485.087475.340817.241076l4.6,14.5c.031093.093603.017284.196315-.037427.278382s-.144211.134318-.242573.141618l-6.77.56c-.099365.010689-.198018-.025658-.266696-.09826s-.099493-.173121-.083304-.27174Z" fill="#fff"/><path id="e8leVkyFGOB23" d="M124.6,116.54l1.49-.7q.46-.21.81.16.77.82.02,1.89c-.172266.242623-.44069.402226-.74.44q-3.05.33-5.75-1.23-.5-.28-1.02-.04l-1.63.76c-.532215.268015-1.071112.015183-1.203661-.564716s.191446-1.267269.723661-1.535284q3.29-1.72,6.36.71c.270479.208652.632472.251013.94.11Z" opacity="0.22" fill="#171717"/><path id="e8leVkyFGOB24" d="M157.09,117.8l2.45-.39q.49-.07.63.4.48,1.63-.92,1.99-2.7.68-5.66-1.22c-.21992-.137799-.490739-.163768-.73-.07l-1.97.81c-.163217.066859-.347522.058488-.50239-.022818s-.264048-.227014-.29761-.397182c-.73-3.44,4.45-2.38,6.16-1.28q.39.25.84.18Z" opacity="0.22" fill="#171717"/><path id="e8leVkyFGOB25" d="M92.55,149.14q2.6,1.44,4.6,3.76c.334077.377077.243962.860556-.206803,1.109525s-1.110144.179455-1.513197-.159525l-3.63-3q-.86-.7-.67.39l.41,2.4q.1.56-.41.81l-.62.31q-.73.37-.87-.44-1.02-6.08-1.05-12.24q0-.98.4-1.42.42-.45,1.09-.41c.37259.020995.665335.326848.67.7l.01,6.22c-.002928.221373.137302.419352.347104.490046s.441252-.002045.572896-.180046q1.17-1.57,3.12-1.5c.216816.008694.406358.15248.471831.357929s-.007571.427226-.181831.552071l-2.56,1.88c-.060882.043793-.095262.115584-.091214.190471s.045966.142554.111214.179529Z" opacity="0.22" fill="#171717"/><path id="e8leVkyFGOB26" d="M120.32,149.99l1.93-.56c.171732-.046869.3553.005151.47691.135148s.161291.316622.10309.484852l-1.45,4.05c-.154481.353186-.551547.531744-.918278.412944s-.583677-.496264-.501722-.872944l.45-1.58q.16-.55-.38-.74c-1.61-.59-2.96-2.05-1.22-3.5.255664-.206677.341635-.55875.21-.86q-.91-2.07,1.03-3.25.48-.29,1.04-.2.66.12,1.03-.61c.078886-.157684.119971-.332295.12-.51q-.01-1.05.58-1.87c.185097-.250336.516563-.342994.804643-.224928s.459182.416693.415357.724928l-.78,4.94c-.033217.221127-.197004.400133-.414318.452815s-.44489-.031448-.575682-.212815l-.95-1.29c-.14645-.199364-.400243-.288413-.639154-.224261s-.41396.268353-.440846.514261q-.12,1.19.91,1.79c.307853.181439.465021.53955.390147.88896s-.364979.611677-.720147.65104q-.7.09-1.08.68c-.116077.181971-.107672.416731.021121.589936s.351194.248839.558879.190064Z" opacity="0.22" fill="#171717"/><path id="e8leVkyFGOB27" d="M132.06,142.32l-2.44.84c-.1698.058371-.356439.041516-.513034-.04633s-.268268-.238337-.306966-.41367q-.23-1.08.76-1.45q3.66-1.33,8.53-.55.5.08.41.57l-.09.5c-.044047.275484-.28102.478605-.56.48h-2.31q-.71,0-.8.71l-1.47,11.23q-.1.69-.78.53l-.66-.15q-.6-.14-.53-.75l1.3-11.07q.07-.64-.54-.43Z" opacity="0.22" fill="#171717"/><path id="e8leVkyFGOB28" d="M51.79,144.36c6.62,2.97-1.46,7.71-4.12,8.82-.362771.149987-.56504.541883-.48.93l.53,2.29c.173337.760042-.233193,1.534991-.96,1.83q-1.41.56-1.71-1.03-.92-5.01-.8-10.09c.006596-.299993-.10864-.591684-.32-.81l-.63-.62q-.51-.52.13-.87q4.23-2.3,8.36-.45Zm-5.25,1.58l.35,4.69c.00507.058443.03327.112441.078336.149996s.103265.055556.161664.050004l.12-.01c2.486164-.188641,4.414626-1.48174,4.31-2.89v-.02c-.048112-.678353-.570701-1.293656-1.452457-1.710145s-2.050209-.599933-3.247543-.509855l-.12.01c-.058443.00507-.112441.03327-.149996.078336s-.055556.103265-.050004.161664Z" opacity="0.22" fill="#171717"/><path id="e8leVkyFGOB29" d="M74.02,150.7c.49,2.66,3.54,3.1,5.23,1.15.176535-.206038.472319-.262157.712052-.135099s.359346.403339.287948.665099c-2.05,7.41-15.61-2.34-3.39-8.61.40853-.202668.902652-.100046,1.196694.248537s.311924.852932.043306,1.221463c-1.48,1.98-4.72,2.04-4.08,5.46Z" opacity="0.22" fill="#171717"/><path id="e8leVkyFGOB30" d="M167.32,151.89l-.24,8.55q-.02.61-.62.75-.96.21-.96-.69.02-4.42-.01-8.85c-.001637-.120864-.055267-.235164-.147177-.31367s-.213189-.113609-.332823-.09633l-1.91.31q-.46.07-.55-.38-.27-1.28,1.01-1.35c3.33-.17,2.85-2.97,3.54-5.43.064841-.241829.284255-.407425.53-.4l1.3.03c.184472.005696.355221.098846.459863.250874s.130684.344781.070137.519126l-1.43,3.95c-.103195.284008-.03756.601928.169672.821848s.520696.304309.810328.218152q1.3-.38,2.19.53c.176445.186355.224507.460088.122101.695405s-.335476.386705-.592101.384595l-2.81-.07c-.322065-.005643-.58913.248069-.6.57Z" opacity="0.22" fill="#171717"/><path id="e8leVkyFGOB31" d="M108.79,145.95c-.399732-.052699-.779518.189494-.900341.574156s.052268.800514.410341.985844l4.11,2.08q.46.23.55.74c.57,3.5-3.51,4.69-6.28,3.71-.535236-.18421-.870923-.712109-.811435-1.276057s.498599-1.016508,1.061435-1.093943q.29-.04.62.45.3.45.83.57q1.06.24,1.84-.3c.362773-.2588.563363-.688803.528559-1.133067s-.29991-.837784-.698559-1.036933l-3.92-1.96c-.332778-.170785-.527156-.527807-.49-.9.53-5.08,8.45-2.88,7.28-.24-.053741.123766-.160184.216886-.289996.253698s-.269292.013432-.380004-.063698q-1.59-1.09-3.46-1.36Z" opacity="0.22" fill="#171717"/><path id="e8leVkyFGOB32" d="M101.63,152.32q1.31.54,2.46-.26c.168283-.117359.387269-.133299.570773-.041547s.302144.276506.309227.481547q.03,1.13-1.05,1.37c-8.18,1.78-7.58-12.45-.85-8.87q1.91,1.02,1.96,3.22c.006721.334913-.160521.646591-.44.82l-3.08,1.94c-.240732.147607-.376355.418569-.351034.701328s.207308.529513.471034.638672Zm.8661-5.7768c-.505644-.547907-1.491326-.460737-2.2016.1947s-.876209,1.630955-.3706,2.1789s1.491326.460737,2.2016-.1947.876209-1.630955.3706-2.1789Z" opacity="0.22" fill="#171717"/><path id="e8leVkyFGOB33" d="M142.38,146.79q.91-1.36,2.61-1.59c.433972-.053858.841653.219126.95714.640902s-.096264.864367-.49714,1.039098q-4.63,1.95-3.2,6.79.18.62-.42.87l-1.12.45c-.170904.070383-.36522.053623-.523225-.04513s-.260794-.267684-.276775-.45487l-.64-9.1q-.04-.51.41-.74.7-.36,1.26.09c.59.49.59,1.03.61,1.81.003441.195008.133114.363541.321669.418063s.393477-.017261.508331-.178063Z" opacity="0.22" fill="#171717"/><path id="e8leVkyFGOB34" d="M86.02,146.38c-1.46-.34-2.12.75-3.4.91q-.93.12-.88-1.11c.012917-.259616.141605-.498609.35-.65c1.73-1.26,6.37-1.63,6.13,1.97q-.25,3.8-.71,7.58c-.022866.170683-.132242.317856-.288013.387542s-.335012.051633-.471987-.047542l-1.09-.78q-.24-.18-.55-.16-2.71.23-4.26-1.96c-.171187-.246774-.225959-.557146-.15-.85q.96-3.83,5.08-3.61c.448471.037327.848317-.281364.91196-.726863s-.230977-.863399-.67196-.953137Zm.39,6.37l-.1-2.9c-.002598-.063671-.03041-.123695-.077307-.16684s-.109026-.065868-.172693-.06316l-.35.01c-.863606.030576-1.685544.224972-2.284142.540221s-.924568.725394-.905858,1.139779l.01.26c.036519.858158,1.511663,1.501857,3.3,1.44l.35-.01c.063671-.002598.123695-.03041.16684-.077307s.065868-.109026.06316-.172693Z" opacity="0.22" fill="#171717"/><path id="e8leVkyFGOB35" d="M67.24,146.65c6.97.62,3.72,5.69-.75,6.31-.27659.037157-.52422.190473-.680781.421496s-.207201.517836-.139219.788504l1.27,4.96c.035498.136057.008282.280942-.074461.396397s-.212694.189873-.355539.203603q-1.41.11-1.72-1.3-.86-3.99-.53-9.38c.07-1.15-.57-2.16.4-3.46q.33-.45.88-.32.75.18,1.01.86c.109455.287835.376758.48928.69.52Zm1.29,1.75q-1.65-.6-2.42.8c-.278933.515782-.195875,1.15227.206076,1.5792s1.032281.548167,1.563924.3008q1.34-.63,1.11-2.12-.06-.42-.46-.56Z" opacity="0.22" fill="#171717"/><path d="M46.54,145.94c-.005552-.058399.012449-.116598.050004-.161664s.091553-.073266.149996-.078336l.12-.01c1.197334-.090078,2.365788.093366,3.247543.509855s1.404345,1.031792,1.452457,1.710145v.02c.104626,1.40826-1.823836,2.701359-4.31,2.89l-.12.01c-.058399.005552-.116598-.012449-.161664-.050004s-.073266-.091553-.078336-.149996l-.35-4.69Z" fill="#fff"/><path id="e8leVkyFGOB37" d="M58.59,153.9c.055421.316378.296876.567707.61078.635756s.637761-.06073.81922-.325756q2.54-3.65.01-7.19c-.146285-.204411-.183588-.467355-.09993-.704387s.277746-.418309.51993-.485613c3.61-1.05,4.44,10.49-2,10.22-.342577-.012828-.661569-.177824-.87-.45q-2.47-3.19-2.27-7.29.05-.94.58-1.29.43-.29,1.05-.26.38.02.45.39l1.2,6.75Z" opacity="0.22" fill="#171717"/><path id="e8leVkyFGOB38" d="M149.32,152.89q.2.75.98.99c.72.23,1.24-.14,1.96-.29.183988-.036332.374534.012569.518288.133012s.225265.299481.221712.486988q0,.13,0,.25-.02.56-.56.69-4.38,1.04-5.57-3.39c-1.5-5.62,4.13-8.55,6.69-3.36q.78,1.58-.81,2.36l-3.17,1.56q-.37.18-.26.57Zm1.9761-4.9707c-.236095-.296816-.604343-.468665-1.023731-.477742s-.855564.145362-1.212569.429342c-.743389.591334-.947499,1.571723-.4559,2.1898.236095.296816.604343.468665,1.023731.477742s.855564-.145362,1.212569-.429342c.743389-.591334.947499-1.571723.4559-2.1898Z" opacity="0.22" fill="#171717"/><path id="e8leVkyFGOB39" d="M160.09,149.61c.210983.049057.430278-.037813.550433-.218045s.115998-.416069-.010433-.591955q-1.28-1.72-3.26-.72-.44.22-.74.19-.54-.06-.8-.41c-.119978-.169135-.162362-.381315-.11657-.583563s.175439-.375478.35657-.476437q2.21-1.27,4.51-.41c1.146693.425844,1.791597,1.646862,1.5,2.84l-1.97,7.96c-.022463.098281-.099717.174717-.198232.196133s-.200529-.016048-.261768-.096133q-1.28-1.63-3.34-1.79c-.904718-.0689-1.700729-.622143-2.082124-1.447118s-.28883-1.793314.242124-2.532882q2.01-2.79,5.62-1.91Zm-4.24,3.74l2.25,1.16q.85.44,1.11-.48l.63-2.3q.17-.62-.47-.69-2.34-.27-3.71,1.49c-.099744.127004-.136226.292571-.099445.451311s.142967.293996.289445.368689Z" opacity="0.22" fill="#171717"/><ellipse rx="1.75" ry="1.35" transform="matrix(.734915-.67816 0.67816 0.734915 101.21 147.73)" fill="#fff"/><ellipse rx="1.72" ry="1.43" transform="matrix(.782608-.622515 0.622515 0.782608 149.95 148.99)" fill="#fff"/><path id="e8leVkyFGOB42" d="M174.99,156.53l1.62-.89q.72-.41.08-.92c-1.3-1.05-3.7-1.98-4.4-3.18-1.78-3.02,4.78-5.4,7-.99.119101.234004.072213.518268-.11573.701626s-.473277.223215-.70427.098374l-3.16-1.71c-.405929-.248528-.936472-.120929-1.185.285s-.120929.936472.285,1.185l3.48,2.38c.567902.387666.914935,1.024603.932763,1.711974s-.29572,1.341442-.842763,1.758026q-3.33,2.52-6.04.15c-.65-.56-.65-1.56.11-2q.43-.25.78.1l1.19,1.19c.261083.254587.656389.307567.97.13Z" opacity="0.22" fill="#171717"/><path d="M68.53,148.4q.4.14.46.56.23,1.49-1.11,2.12c-.531643.247367-1.161974.126131-1.563924-.3008s-.485009-1.063418-.206076-1.5792q.77-1.4,2.42-.8Z" fill="#fff"/><path d="M155.85,153.35c-.146478-.074693-.252664-.209949-.289445-.368689s-.000299-.324307.099445-.451311q1.37-1.76,3.71-1.49.64.07.47.69l-.63,2.3q-.26.92-1.11.48l-2.25-1.16Z" fill="#fff"/><path id="e8leVkyFGOB45" d="M101,162.79c24.9,3.06,49.6,9.48,74.7,2.07.181516-.052343.376912-.020442.530731.086647s.249273.277679.259269.463353l.09,1.69q.04.6-.54.76c-31.48,8.58-58.59-2.62-92.03-2.96q-17.61-.18-33.74,7.95c-.184777.094585-.413351.024254-.52-.16l-.79-1.36c-.104498-.180104-.132647-.394514-.078177-.595487s.187034-.371826.368177-.474513c15.31-8.68,33.58-9.7,51.75-7.47Z" transform="translate(-.218589-.549957)" opacity="0" fill="#171717" stroke-dashoffset="263.46" stroke-dasharray="263.46"/><line x1="-1.769171" y1="-3.770163" x2="1.769171" y2="3.770163" transform="matrix(.99925-.038713 0.027971 0.721988 148.300472 66.086682)" fill="none" stroke="#000" stroke-width="1.5" stroke-linecap="round" stroke-dashoffset="8.33" stroke-dasharray="8.33"/><line x1="-0.814734" y1="-3.635514" x2="0.814734" y2="3.635514" transform="matrix(.999995-.00315 0.002145 0.681054 153.81575 63.676626)" fill="none" stroke="#000" stroke-width="1.5" stroke-linecap="round" stroke-dashoffset="7.46" stroke-dasharray="7.46"/><line x1="0.901196" y1="-3.702838" x2="-0.901195" y2="3.702838" transform="matrix(.989589-.143923 0.122178 0.840072 158.73312 62.754575)" fill="none" stroke="#000" stroke-width="1.5" stroke-linecap="round" stroke-dashoffset="7.63" stroke-dasharray="7.63"/>
<script><![CDATA[
!function(t,n){"object"==typeof exports&&"undefined"!=typeof module?module.exports=n():"function"==typeof __SVGATOR_DEFINE__&&__SVGATOR_DEFINE__.amd?__SVGATOR_DEFINE__(n):((t="undefined"!=typeof globalThis?globalThis:t||self).__SVGATOR_PLAYER__=t.__SVGATOR_PLAYER__||{},t.__SVGATOR_PLAYER__["7c8cb2ed"]=n())}(this,(function(){"use strict";function t(t,n){var e=Object.keys(t);if(Object.getOwnPropertySymbols){var r=Object.getOwnPropertySymbols(t);n&&(r=r.filter((function(n){return Object.getOwnPropertyDescriptor(t,n).enumerable}))),e.push.apply(e,r)}return e}function n(n){for(var e=1;e<arguments.length;e++){var r=null!=arguments[e]?arguments[e]:{};e%2?t(Object(r),!0).forEach((function(t){o(n,t,r[t])})):Object.getOwnPropertyDescriptors?Object.defineProperties(n,Object.getOwnPropertyDescriptors(r)):t(Object(r)).forEach((function(t){Object.defineProperty(n,t,Object.getOwnPropertyDescriptor(r,t))}))}return n}function e(t){return(e="function"==typeof Symbol&&"symbol"==typeof Symbol.iterator?function(t){return typeof t}:function(t){return t&&"function"==typeof Symbol&&t.constructor===Symbol&&t!==Symbol.prototype?"symbol":typeof t})(t)}function r(t,n){if(!(t instanceof n))throw new TypeError("Cannot call a class as a function")}function i(t,n){for(var e=0;e<n.length;e++){var r=n[e];r.enumerable=r.enumerable||!1,r.configurable=!0,"value"in r&&(r.writable=!0),Object.defineProperty(t,r.key,r)}}function u(t,n,e){return n&&i(t.prototype,n),e&&i(t,e),t}function o(t,n,e){return n in t?Object.defineProperty(t,n,{value:e,enumerable:!0,configurable:!0,writable:!0}):t[n]=e,t}function a(t){return(a=Object.setPrototypeOf?Object.getPrototypeOf:function(t){return t.__proto__||Object.getPrototypeOf(t)})(t)}function l(t,n){return(l=Object.setPrototypeOf||function(t,n){return t.__proto__=n,t})(t,n)}function f(){if("undefined"==typeof Reflect||!Reflect.construct)return!1;if(Reflect.construct.sham)return!1;if("function"==typeof Proxy)return!0;try{return Boolean.prototype.valueOf.call(Reflect.construct(Boolean,[],(function(){}))),!0}catch(t){return!1}}function s(t,n,e){return(s=f()?Reflect.construct:function(t,n,e){var r=[null];r.push.apply(r,n);var i=new(Function.bind.apply(t,r));return e&&l(i,e.prototype),i}).apply(null,arguments)}function c(t,n){if(n&&("object"==typeof n||"function"==typeof n))return n;if(void 0!==n)throw new TypeError("Derived constructors may only return object or undefined");return function(t){if(void 0===t)throw new ReferenceError("this hasn't been initialised - super() hasn't been called");return t}(t)}function h(t,n,e){return(h="undefined"!=typeof Reflect&&Reflect.get?Reflect.get:function(t,n,e){var r=function(t,n){for(;!Object.prototype.hasOwnProperty.call(t,n)&&null!==(t=a(t)););return t}(t,n);if(r){var i=Object.getOwnPropertyDescriptor(r,n);return i.get?i.get.call(e):i.value}})(t,n,e||t)}function v(t){return function(t){if(Array.isArray(t))return y(t)}(t)||function(t){if("undefined"!=typeof Symbol&&null!=t[Symbol.iterator]||null!=t["@@iterator"])return Array.from(t)}(t)||function(t,n){if(!t)return;if("string"==typeof t)return y(t,n);var e=Object.prototype.toString.call(t).slice(8,-1);"Object"===e&&t.constructor&&(e=t.constructor.name);if("Map"===e||"Set"===e)return Array.from(t);if("Arguments"===e||/^(?:Ui|I)nt(?:8|16|32)(?:Clamped)?Array$/.test(e))return y(t,n)}(t)||function(){throw new TypeError("Invalid attempt to spread non-iterable instance.\nIn order to be iterable, non-array objects must have a [Symbol.iterator]() method.")}()}function y(t,n){(null==n||n>t.length)&&(n=t.length);for(var e=0,r=new Array(n);e<n;e++)r[e]=t[e];return r}function g(t,n,e){if(Number.isInteger(t))return t;var r=Math.pow(10,n);return Math[e]((+t+Number.EPSILON)*r)/r}Number.isInteger||(Number.isInteger=function(t){return"number"==typeof t&&isFinite(t)&&Math.floor(t)===t}),Number.EPSILON||(Number.EPSILON=2220446049250313e-31);var d=p(Math.pow(10,-6));function p(t){var n=arguments.length>1&&void 0!==arguments[1]?arguments[1]:6;return g(t,n,"round")}function m(t,n){var e=arguments.length>2&&void 0!==arguments[2]?arguments[2]:d;return Math.abs(t-n)<e}p(Math.pow(10,-2)),p(Math.pow(10,-4));var b=Math.PI/180;function A(t){return t}function w(t,n,e){var r=1-e;return 3*e*r*(t*r+n*e)+e*e*e}function x(){var t=arguments.length>0&&void 0!==arguments[0]?arguments[0]:0,n=arguments.length>1&&void 0!==arguments[1]?arguments[1]:0,e=arguments.length>2&&void 0!==arguments[2]?arguments[2]:1,r=arguments.length>3&&void 0!==arguments[3]?arguments[3]:1;return t<0||t>1||e<0||e>1?null:m(t,n)&&m(e,r)?A:function(i){if(i<=0)return t>0?i*n/t:0===n&&e>0?i*r/e:0;if(i>=1)return e<1?1+(i-1)*(r-1)/(e-1):1===e&&t<1?1+(i-1)*(n-1)/(t-1):1;for(var u,o=0,a=1;o<a;){var l=w(t,e,u=(o+a)/2);if(m(i,l))break;l<i?o=u:a=u}return w(n,r,u)}}function _(){return 1}function k(t){return 1===t?1:0}function S(){var t=arguments.length>0&&void 0!==arguments[0]?arguments[0]:1,n=arguments.length>1&&void 0!==arguments[1]?arguments[1]:0;if(1===t){if(0===n)return k;if(1===n)return _}var e=1/t;return function(t){return t>=1?1:(t+=n*e)-t%e}}var O=Math.sin,E=Math.cos,j=Math.acos,I=Math.asin,M=Math.tan,P=Math.atan2,R=Math.PI/180,B=180/Math.PI,F=Math.sqrt,N=function(){function t(){var n=arguments.length>0&&void 0!==arguments[0]?arguments[0]:1,e=arguments.length>1&&void 0!==arguments[1]?arguments[1]:0,i=arguments.length>2&&void 0!==arguments[2]?arguments[2]:0,u=arguments.length>3&&void 0!==arguments[3]?arguments[3]:1,o=arguments.length>4&&void 0!==arguments[4]?arguments[4]:0,a=arguments.length>5&&void 0!==arguments[5]?arguments[5]:0;r(this,t),this.m=[n,e,i,u,o,a],this.i=null,this.w=null,this.s=null}return u(t,[{key:"determinant",get:function(){var t=this.m;return t[0]*t[3]-t[1]*t[2]}},{key:"isIdentity",get:function(){if(null===this.i){var t=this.m;this.i=1===t[0]&&0===t[1]&&0===t[2]&&1===t[3]&&0===t[4]&&0===t[5]}return this.i}},{key:"point",value:function(t,n){var e=this.m;return{x:e[0]*t+e[2]*n+e[4],y:e[1]*t+e[3]*n+e[5]}}},{key:"translateSelf",value:function(){var t=arguments.length>0&&void 0!==arguments[0]?arguments[0]:0,n=arguments.length>1&&void 0!==arguments[1]?arguments[1]:0;if(!t&&!n)return this;var e=this.m;return e[4]+=e[0]*t+e[2]*n,e[5]+=e[1]*t+e[3]*n,this.w=this.s=this.i=null,this}},{key:"rotateSelf",value:function(){var t=arguments.length>0&&void 0!==arguments[0]?arguments[0]:0;if(t%=360){var n=O(t*=R),e=E(t),r=this.m,i=r[0],u=r[1];r[0]=i*e+r[2]*n,r[1]=u*e+r[3]*n,r[2]=r[2]*e-i*n,r[3]=r[3]*e-u*n,this.w=this.s=this.i=null}return this}},{key:"scaleSelf",value:function(){var t=arguments.length>0&&void 0!==arguments[0]?arguments[0]:1,n=arguments.length>1&&void 0!==arguments[1]?arguments[1]:1;if(1!==t||1!==n){var e=this.m;e[0]*=t,e[1]*=t,e[2]*=n,e[3]*=n,this.w=this.s=this.i=null}return this}},{key:"skewSelf",value:function(t,n){if(n%=360,(t%=360)||n){var e=this.m,r=e[0],i=e[1],u=e[2],o=e[3];t&&(t=M(t*R),e[2]+=r*t,e[3]+=i*t),n&&(n=M(n*R),e[0]+=u*n,e[1]+=o*n),this.w=this.s=this.i=null}return this}},{key:"resetSelf",value:function(){var t=arguments.length>0&&void 0!==arguments[0]?arguments[0]:1,n=arguments.length>1&&void 0!==arguments[1]?arguments[1]:0,e=arguments.length>2&&void 0!==arguments[2]?arguments[2]:0,r=arguments.length>3&&void 0!==arguments[3]?arguments[3]:1,i=arguments.length>4&&void 0!==arguments[4]?arguments[4]:0,u=arguments.length>5&&void 0!==arguments[5]?arguments[5]:0,o=this.m;return o[0]=t,o[1]=n,o[2]=e,o[3]=r,o[4]=i,o[5]=u,this.w=this.s=this.i=null,this}},{key:"recomposeSelf",value:function(){var t=arguments.length>0&&void 0!==arguments[0]?arguments[0]:null,n=arguments.length>1&&void 0!==arguments[1]?arguments[1]:null,e=arguments.length>2&&void 0!==arguments[2]?arguments[2]:null,r=arguments.length>3&&void 0!==arguments[3]?arguments[3]:null,i=arguments.length>4&&void 0!==arguments[4]?arguments[4]:null;return this.isIdentity||this.resetSelf(),t&&(t.x||t.y)&&this.translateSelf(t.x,t.y),n&&this.rotateSelf(n),e&&(e.x&&this.skewSelf(e.x,0),e.y&&this.skewSelf(0,e.y)),!r||1===r.x&&1===r.y||this.scaleSelf(r.x,r.y),i&&(i.x||i.y)&&this.translateSelf(i.x,i.y),this}},{key:"decompose",value:function(){var t=arguments.length>0&&void 0!==arguments[0]?arguments[0]:0,n=arguments.length>1&&void 0!==arguments[1]?arguments[1]:0,e=this.m,r=e[0]*e[0]+e[1]*e[1],i=[[e[0],e[1]],[e[2],e[3]]],u=F(r);if(0===u)return{origin:{x:p(e[4]),y:p(e[5])},translate:{x:p(t),y:p(n)},scale:{x:0,y:0},skew:{x:0,y:0},rotate:0};i[0][0]/=u,i[0][1]/=u;var o=e[0]*e[3]-e[1]*e[2]<0;o&&(u=-u);var a=i[0][0]*i[1][0]+i[0][1]*i[1][1];i[1][0]-=i[0][0]*a,i[1][1]-=i[0][1]*a;var l=F(i[1][0]*i[1][0]+i[1][1]*i[1][1]);if(0===l)return{origin:{x:p(e[4]),y:p(e[5])},translate:{x:p(t),y:p(n)},scale:{x:p(u),y:0},skew:{x:0,y:0},rotate:0};i[1][0]/=l,i[1][1]/=l,a/=l;var f=0;return i[1][1]<0?(f=j(i[1][1])*B,i[0][1]<0&&(f=360-f)):f=I(i[0][1])*B,o&&(f=-f),a=P(a,F(i[0][0]*i[0][0]+i[0][1]*i[0][1]))*B,o&&(a=-a),{origin:{x:p(e[4]),y:p(e[5])},translate:{x:p(t),y:p(n)},scale:{x:p(u),y:p(l)},skew:{x:p(a),y:0},rotate:p(f)}}},{key:"clone",value:function(){var t=this.m;return new this.constructor(t[0],t[1],t[2],t[3],t[4],t[5])}},{key:"toString",value:function(){var t=arguments.length>0&&void 0!==arguments[0]?arguments[0]:" ";if(null===this.s){var n=this.m.map((function(t){return p(t)}));1===n[0]&&0===n[1]&&0===n[2]&&1===n[3]?this.s="translate("+n[4]+t+n[5]+")":this.s="matrix("+n.join(t)+")"}return this.s}}],[{key:"create",value:function(t){return t?Array.isArray(t)?s(this,v(t)):t instanceof this?t.clone():(new this).recomposeSelf(t.origin,t.rotate,t.skew,t.scale,t.translate):new this}}]),t}();function T(t,n,e){return t>=.5?e:n}function q(t,n,e){return 0===t||n===e?n:t*(e-n)+n}function D(t,n,e){var r=q(t,n,e);return r<=0?0:r}function L(t,n,e){var r=q(t,n,e);return r<=0?0:r>=1?1:r}function C(t,n,e){return 0===t?n:1===t?e:{x:q(t,n.x,e.x),y:q(t,n.y,e.y)}}function V(t,n,e){return 0===t?n:1===t?e:{x:D(t,n.x,e.x),y:D(t,n.y,e.y)}}function G(t,n,e){var r=function(t,n,e){return Math.round(q(t,n,e))}(t,n,e);return r<=0?0:r>=255?255:r}function z(t,n,e){return 0===t?n:1===t?e:{r:G(t,n.r,e.r),g:G(t,n.g,e.g),b:G(t,n.b,e.b),a:q(t,null==n.a?1:n.a,null==e.a?1:e.a)}}function Y(t,n,e){var r=n.length;if(r!==e.length)return T(t,n,e);for(var i=new Array(r),u=0;u<r;u++)i[u]=q(t,n[u],e[u]);return i}function $(t,n){for(var e=[],r=0;r<t;r++)e.push(n);return e}function U(t,n){if(--n<=0)return t;var e=(t=Object.assign([],t)).length;do{for(var r=0;r<e;r++)t.push(t[r])}while(--n>0);return t}var Q,H=function(){function t(n){r(this,t),this.list=n,this.length=n.length}return u(t,[{key:"setAttribute",value:function(t,n){for(var e=this.list,r=0;r<this.length;r++)e[r].setAttribute(t,n)}},{key:"removeAttribute",value:function(t){for(var n=this.list,e=0;e<this.length;e++)n[e].removeAttribute(t)}},{key:"style",value:function(t,n){for(var e=this.list,r=0;r<this.length;r++)e[r].style[t]=n}}]),t}(),J=/-./g,Z=function(t,n){return n.toUpperCase()};function K(t){return"function"==typeof t?t:T}function W(t){return t?"function"==typeof t?t:Array.isArray(t)?function(t){var n=arguments.length>1&&void 0!==arguments[1]?arguments[1]:A;if(!Array.isArray(t))return n;switch(t.length){case 1:return S(t[0])||n;case 2:return S(t[0],t[1])||n;case 4:return x(t[0],t[1],t[2],t[3])||n}return n}(t,null):function(t,n){var e=arguments.length>2&&void 0!==arguments[2]?arguments[2]:A;switch(t){case"linear":return A;case"steps":return S(n.steps||1,n.jump||0)||e;case"bezier":case"cubic-bezier":return x(n.x1||0,n.y1||0,n.x2||0,n.y2||0)||e}return e}(t.type,t.value,null):null}function X(t,n,e){var r=arguments.length>3&&void 0!==arguments[3]&&arguments[3],i=n.length-1;if(t<=n[0].t)return r?[0,0,n[0].v]:n[0].v;if(t>=n[i].t)return r?[i,1,n[i].v]:n[i].v;var u,o=n[0],a=null;for(u=1;u<=i;u++){if(!(t>n[u].t)){a=n[u];break}o=n[u]}return null==a?r?[i,1,n[i].v]:n[i].v:o.t===a.t?r?[u,1,a.v]:a.v:(t=(t-o.t)/(a.t-o.t),o.e&&(t=o.e(t)),r?[u,t,e(t,o.v,a.v)]:e(t,o.v,a.v))}function tt(t,n){var e=arguments.length>2&&void 0!==arguments[2]?arguments[2]:null;return t&&t.length?"function"!=typeof n?null:("function"!=typeof e&&(e=null),function(r){var i=X(r,t,n);return null!=i&&e&&(i=e(i)),i}):null}function nt(t,n){return t.t-n.t}function et(t,n,r,i,u){var o,a="@"===r[0],l="#"===r[0],f=Q[r],s=T;switch(a?(o=r.substr(1),r=o.replace(J,Z)):l&&(r=r.substr(1)),e(f)){case"function":if(s=f(i,u,X,W,r,a,n,t),l)return s;break;case"string":s=tt(i,K(f));break;case"object":if((s=tt(i,K(f.i),f.f))&&"function"==typeof f.u)return f.u(n,s,r,a,t)}return s?function(t,n,e){if(arguments.length>3&&void 0!==arguments[3]&&arguments[3])return t instanceof H?function(r){return t.style(n,e(r))}:function(r){return t.style[n]=e(r)};if(Array.isArray(n)){var r=n.length;return function(i){var u=e(i);if(null==u)for(var o=0;o<r;o++)t[o].removeAttribute(n);else for(var a=0;a<r;a++)t[a].setAttribute(n,u)}}return function(r){var i=e(r);null==i?t.removeAttribute(n):t.setAttribute(n,i)}}(n,r,s,a):null}function rt(t,n,r,i){if(!i||"object"!==e(i))return null;var u=null,o=null;return Array.isArray(i)?o=function(t){if(!t||!t.length)return null;for(var n=0;n<t.length;n++)t[n].e&&(t[n].e=W(t[n].e));return t.sort(nt)}(i):(o=i.keys,u=i.data||null),o?et(t,n,r,o,u):null}function it(t,n,e){if(!e)return null;var r=[];for(var i in e)if(e.hasOwnProperty(i)){var u=rt(t,n,i,e[i]);u&&r.push(u)}return r.length?r:null}function ut(t,n){if(!n.settings.duration||n.settings.duration<0)return null;var e,r,i,u,o,a=function(t,n){if(!n)return null;var e=[];if(Array.isArray(n))for(var r=n.length,i=0;i<r;i++){var u=n[i];if(2===u.length){var o=null;if("string"==typeof u[0])o=t.getElementById(u[0]);else if(Array.isArray(u[0])){o=[];for(var a=0;a<u[0].length;a++)if("string"==typeof u[0][a]){var l=t.getElementById(u[0][a]);l&&o.push(l)}o=o.length?1===o.length?o[0]:new H(o):null}if(o){var f=it(t,o,u[1]);f&&(e=e.concat(f))}}}else for(var s in n)if(n.hasOwnProperty(s)){var c=t.getElementById(s);if(c){var h=it(t,c,n[s]);h&&(e=e.concat(h))}}return e.length?e:null}(t,n.elements);return a?(e=a,r=n.settings,i=r.duration,u=e.length,o=null,function(t,n){var a=r.iterations||1/0,l=(r.alternate&&a%2==0)^r.direction>0?i:0,f=t%i,s=1+(t-f)/i;n*=r.direction,r.alternate&&s%2==0&&(n=-n);var c=!1;if(s>a)f=l,c=!0,-1===r.fill&&(f=r.direction>0?0:i);else if(n<0&&(f=i-f),f===o)return!1;o=f;for(var h=0;h<u;h++)e[h](f);return c}):null}function ot(t,n){for(var e=n.querySelectorAll("svg"),r=0;r<e.length;r++)if(e[r].id===t.root&&!e[r].svgatorAnimation)return e[r].svgatorAnimation=!0,e[r];return null}function at(t){var n=function(t){return t.shadowRoot};return document?Array.from(t.querySelectorAll(":not("+["a","area","audio","br","canvas","circle","datalist","embed","g","head","hr","iframe","img","input","link","object","path","polygon","rect","script","source","style","svg","title","track","video"].join()+")")).filter(n).map(n):[]}function lt(t){var n=arguments.length>1&&void 0!==arguments[1]?arguments[1]:document,e=arguments.length>2&&void 0!==arguments[2]?arguments[2]:0,r=ot(t,n);if(r)return r;if(e>=20)return null;for(var i=at(n),u=0;u<i.length;u++){var o=lt(t,i[u],e+1);if(o)return o}return null}function ft(t,n){if(Q=n,!t||!t.root||!Array.isArray(t.animations))return null;var e=lt(t);if(!e)return null;var r=t.animations.map((function(t){return ut(e,t)})).filter((function(t){return!!t}));return r.length?{svg:e,animations:r,animationSettings:t.animationSettings,options:t.options||void 0}:null}function st(t){var n=arguments.length>1&&void 0!==arguments[1]?arguments[1]:null,e=arguments.length>2&&void 0!==arguments[2]?arguments[2]:Number,r=arguments.length>3&&void 0!==arguments[3]?arguments[3]:"undefined"!=typeof BigInt&&BigInt,i="0x"+(t.replace(/[^0-9a-fA-F]+/g,"")||27);return n&&r&&e.isSafeInteger&&!e.isSafeInteger(+i)?e(r(i))%n+n:+i}function ct(t,n,e){return!t||!e||n>t.length?t:t.substring(0,n)+ct(t.substring(n+1),e,e)}function ht(t){var n=arguments.length>1&&void 0!==arguments[1]?arguments[1]:27;return!t||t%n?t%n:[0,1].includes(n)?n:ht(t/n,n)}function vt(t,n,e){if(t&&t.length){var r=st(e),i=ht(r)+5,u=ct(t,ht(r,5),i);return u=u.replace(/\x7c$/g,"==").replace(/\x2f$/g,"="),u=function(t,n,e){var r=+("0x"+t.substring(0,4));t=t.substring(4);for(var i=st(n,r)%r+e%27,u=[],o=0;o<t.length;o+=2)if("|"!==t[o]){var a=+("0x"+t[o]+t[o+1])-i;u.push(a)}else{var l=+("0x"+t.substring(o+1,o+1+4))-i;o+=3,u.push(l)}return String.fromCharCode.apply(String,u)}(u=(u=atob(u)).replace(/[\x41-\x5A]/g,""),n,r),u=JSON.parse(u)}}var yt=[{key:"alternate",def:!1},{key:"fill",def:1},{key:"iterations",def:0},{key:"direction",def:1},{key:"speed",def:1},{key:"fps",def:100}],gt=function(){function t(n,e){var i=this,u=arguments.length>2&&void 0!==arguments[2]?arguments[2]:null;r(this,t),this._id=0,this._running=!1,this._rollingBack=!1,this._animations=n,this._settings=e,(!u||u<"2022-05-02")&&delete this._settings.speed,yt.forEach((function(t){i._settings[t.key]=i._settings[t.key]||t.def})),this.duration=e.duration,this.offset=e.offset||0,this.rollbackStartOffset=0}return u(t,[{key:"alternate",get:function(){return this._settings.alternate}},{key:"fill",get:function(){return this._settings.fill}},{key:"iterations",get:function(){return this._settings.iterations}},{key:"direction",get:function(){return this._settings.direction}},{key:"speed",get:function(){return this._settings.speed}},{key:"fps",get:function(){return this._settings.fps}},{key:"maxFiniteDuration",get:function(){return this.iterations>0?this.iterations*this.duration:this.duration}},{key:"_apply",value:function(t){for(var n=arguments.length>1&&void 0!==arguments[1]?arguments[1]:{},e=this._animations,r=e.length,i=0,u=0;u<r;u++)n[u]?i++:(n[u]=e[u](t,1),n[u]&&i++);return i}},{key:"_rollback",value:function(t){var n=this,e=1/0,r=null;this.rollbackStartOffset=t,this._rollingBack=!0,this._running=!0;this._id=window.requestAnimationFrame((function i(u){if(n._rollingBack){null==r&&(r=u);var o=Math.round(t-(u-r)*n.speed);if(o>n.duration&&e!==1/0){var a=!!n.alternate&&o/n.duration%2>1,l=o%n.duration;o=(l+=a?n.duration:0)||n.duration}var f=(n.fps?1e3/n.fps:0)*n.speed,s=Math.max(0,o);s<=e-f&&(n.offset=s,e=s,n._apply(s));var c=n.iterations>0&&-1===n.fill&&o>=n.maxFiniteDuration;(o<=0||n.offset<o||c)&&n.stop(),n._id=window.requestAnimationFrame(i)}}))}},{key:"_start",value:function(){var t=this,n=arguments.length>0&&void 0!==arguments[0]?arguments[0]:0,e=-1/0,r=null,i={};this._running=!0;var u=function u(o){null==r&&(r=o);var a=Math.round((o-r)*t.speed+n),l=(t.fps?1e3/t.fps:0)*t.speed;if(a>=e+l&&!t._rollingBack&&(t.offset=a,e=a,t._apply(a,i)===t._animations.length))return void t.pause(!0);t._id=window.requestAnimationFrame(u)};this._id=window.requestAnimationFrame(u)}},{key:"_pause",value:function(){this._id&&window.cancelAnimationFrame(this._id),this._running=!1}},{key:"play",value:function(){if(!this._running)return this._rollingBack?this._rollback(this.offset):this._start(this.offset)}},{key:"stop",value:function(){this._pause(),this.offset=0,this.rollbackStartOffset=0,this._rollingBack=!1,this._apply(0)}},{key:"reachedToEnd",value:function(){return this.iterations>0&&this.offset>=this.iterations*this.duration}},{key:"restart",value:function(){var t=arguments.length>0&&void 0!==arguments[0]&&arguments[0];this.stop(t),this.play(t)}},{key:"pause",value:function(){this._pause()}},{key:"reverse",value:function(){this.direction=-this.direction}}],[{key:"build",value:function(t,n){delete t.animationSettings,t.options=vt(t.options,t.root,"7c8cb2ed"),t.animations.map((function(n){n.settings=vt(n.s,t.root,"7c8cb2ed"),delete n.s,t.animationSettings||(t.animationSettings=n.settings)}));var e=t.version;if(!(t=ft(t,n)))return null;var r=t.options||{},i=new this(t.animations,t.animationSettings,e);return{el:t.svg,options:r,player:i}}},{key:"push",value:function(t){return this.build(t)}},{key:"init",value:function(){var t=this,n=window.__SVGATOR_PLAYER__&&window.__SVGATOR_PLAYER__["7c8cb2ed"];Array.isArray(n)&&n.splice(0).forEach((function(n){return t.build(n)}))}}]),t}();function dt(t){return p(t)+""}function pt(t){var n=arguments.length>1&&void 0!==arguments[1]?arguments[1]:" ";return t&&t.length?t.map(dt).join(n):""}function mt(t){return dt(t.x)+","+dt(t.y)}function bt(t){if(!t)return"transparent";if(null==t.a||t.a>=1){var n=function(t){return 1===(t=parseInt(t).toString(16)).length?"0"+t:t},e=function(t){return t.charAt(0)===t.charAt(1)},r=n(t.r),i=n(t.g),u=n(t.b);return e(r)&&e(i)&&e(u)&&(r=r.charAt(0),i=i.charAt(0),u=u.charAt(0)),"#"+r+i+u}return"rgba("+t.r+","+t.g+","+t.b+","+t.a+")"}function At(t){return t?"url(#"+t+")":"none"}!function(){for(var t=0,n=["ms","moz","webkit","o"],e=0;e<n.length&&!window.requestAnimationFrame;++e)window.requestAnimationFrame=window[n[e]+"RequestAnimationFrame"],window.cancelAnimationFrame=window[n[e]+"CancelAnimationFrame"]||window[n[e]+"CancelRequestAnimationFrame"];window.requestAnimationFrame||(window.requestAnimationFrame=function(n){var e=Date.now(),r=Math.max(0,16-(e-t)),i=window.setTimeout((function(){n(e+r)}),r);return t=e+r,i},window.cancelAnimationFrame=window.clearTimeout)}();var wt={f:null,i:V,u:function(t,n){return function(e){var r=n(e);t.setAttribute("rx",dt(r.x)),t.setAttribute("ry",dt(r.y))}}},xt={f:null,i:function(t,n,e){return 0===t?n:1===t?e:{width:D(t,n.width,e.width),height:D(t,n.height,e.height)}},u:function(t,n){return function(e){var r=n(e);t.setAttribute("width",dt(r.width)),t.setAttribute("height",dt(r.height))}}};Object.freeze({M:2,L:2,Z:0,H:1,V:1,C:6,Q:4,T:2,S:4,A:7});var _t={},kt=null;function St(t){var n=function(){if(kt)return kt;if("object"!==("undefined"==typeof document?"undefined":e(document))||!document.createElementNS)return{};var t=document.createElementNS("http://www.w3.org/2000/svg","svg");return t&&t.style?(t.style.position="absolute",t.style.opacity="0.01",t.style.zIndex="-9999",t.style.left="-9999px",t.style.width="1px",t.style.height="1px",kt={svg:t}):{}}().svg;if(!n)return function(t){return null};var r=document.createElementNS(n.namespaceURI,"path");r.setAttributeNS(null,"d",t),r.setAttributeNS(null,"fill","none"),r.setAttributeNS(null,"stroke","none"),n.appendChild(r);var i=r.getTotalLength();return function(t){var n=r.getPointAtLength(i*t);return{x:n.x,y:n.y}}}function Ot(t){return _t[t]?_t[t]:_t[t]=St(t)}function Et(t,n,e,r){if(!t||!r)return!1;var i=["M",t.x,t.y];if(n&&e&&(i.push("C"),i.push(n.x),i.push(n.y),i.push(e.x),i.push(e.y)),n?!e:e){var u=n||e;i.push("Q"),i.push(u.x),i.push(u.y)}return n||e||i.push("L"),i.push(r.x),i.push(r.y),i.join(" ")}function jt(t,n,e,r){var i=arguments.length>4&&void 0!==arguments[4]?arguments[4]:1,u=Et(t,n,e,r),o=Ot(u);try{return o(i)}catch(t){return null}}function It(t,n,e){return t+(n-t)*e}function Mt(t,n,e){var r=arguments.length>3&&void 0!==arguments[3]&&arguments[3],i={x:It(t.x,n.x,e),y:It(t.y,n.y,e)};return r&&(i.a=Pt(t,n)),i}function Pt(t,n){return Math.atan2(n.y-t.y,n.x-t.x)}function Rt(t,n,e,r){var i=1-r;return i*i*t+2*i*r*n+r*r*e}function Bt(t,n,e,r){return 2*(1-r)*(n-t)+2*r*(e-n)}function Ft(t,n,e,r){var i=arguments.length>4&&void 0!==arguments[4]&&arguments[4],u=jt(t,n,null,e,r);return u||(u={x:Rt(t.x,n.x,e.x,r),y:Rt(t.y,n.y,e.y,r)}),i&&(u.a=Nt(t,n,e,r)),u}function Nt(t,n,e,r){return Math.atan2(Bt(t.y,n.y,e.y,r),Bt(t.x,n.x,e.x,r))}function Tt(t,n,e,r,i){var u=i*i;return i*u*(r-t+3*(n-e))+3*u*(t+e-2*n)+3*i*(n-t)+t}function qt(t,n,e,r,i){var u=1-i;return 3*(u*u*(n-t)+2*u*i*(e-n)+i*i*(r-e))}function Dt(t,n,e,r,i){var u=arguments.length>5&&void 0!==arguments[5]&&arguments[5],o=jt(t,n,e,r,i);return o||(o={x:Tt(t.x,n.x,e.x,r.x,i),y:Tt(t.y,n.y,e.y,r.y,i)}),u&&(o.a=Lt(t,n,e,r,i)),o}function Lt(t,n,e,r,i){return Math.atan2(qt(t.y,n.y,e.y,r.y,i),qt(t.x,n.x,e.x,r.x,i))}function Ct(t,n,e){var r=arguments.length>3&&void 0!==arguments[3]&&arguments[3];if(Gt(n)){if(zt(e))return Ft(n,e.start,e,t,r)}else if(Gt(e)){if(Yt(n))return Ft(n,n.end,e,t,r)}else{if(Yt(n))return zt(e)?Dt(n,n.end,e.start,e,t,r):Ft(n,n.end,e,t,r);if(zt(e))return Ft(n,e.start,e,t,r)}return Mt(n,e,t,r)}function Vt(t,n,e){var r=Ct(t,n,e,!0);return r.a=function(t){return arguments.length>1&&void 0!==arguments[1]&&arguments[1]?t+Math.PI:t}(r.a)/b,r}function Gt(t){return!t.type||"corner"===t.type}function zt(t){return null!=t.start&&!Gt(t)}function Yt(t){return null!=t.end&&!Gt(t)}var $t=new N;var Ut={f:function(t){return t?t.join(" "):""},i:function(t,n,r){if(0===t)return n;if(1===t)return r;var i=n.length;if(i!==r.length)return T(t,n,r);for(var u,o=new Array(i),a=0;a<i;a++){if((u=e(n[a]))!==e(r[a]))return T(t,n,r);if("number"===u)o[a]=q(t,n[a],r[a]);else{if(n[a]!==r[a])return T(t,n,r);o[a]=n[a]}}return o}},Qt={f:null,i:Y,u:function(t,n){return function(e){var r=n(e);t.setAttribute("x1",dt(r[0])),t.setAttribute("y1",dt(r[1])),t.setAttribute("x2",dt(r[2])),t.setAttribute("y2",dt(r[3]))}}},Ht={f:dt,i:q},Jt={f:dt,i:L},Zt={f:function(t){var n=arguments.length>1&&void 0!==arguments[1]?arguments[1]:" ";return t&&t.length>0&&(t=t.map((function(t){return p(t,4)}))),pt(t,n)},i:function(t,n,e){var r,i,u,o=n.length,a=e.length;if(o!==a)if(0===o)n=$(o=a,0);else if(0===a)a=o,e=$(o,0);else{var l=(u=(r=o)*(i=a)/function(t,n){for(var e;n;)e=n,n=t%n,t=e;return t||1}(r,i))<0?-u:u;n=U(n,Math.floor(l/o)),e=U(e,Math.floor(l/a)),o=a=l}for(var f=[],s=0;s<o;s++)f.push(p(D(t,n[s],e[s])));return f}};function Kt(t,n,e){return t.map((function(t){return function(t,n,e){var r=t.v;if(!r||"g"!==r.t||r.s||!r.v||!r.r)return t;var i=e.getElementById(r.r),u=i&&i.querySelectorAll("stop")||[];return r.s=r.v.map((function(t,n){var e=u[n]&&u[n].getAttribute("offset");return{c:t,o:e=p(parseInt(e)/100)}})),delete r.v,t}(t,0,e)}))}var Wt={gt:"gradientTransform",c:{x:"cx",y:"cy"},rd:"r",f:{x:"x1",y:"y1"},to:{x:"x2",y:"y2"}};function Xt(t,n,r,i,u,o,a,l){return Kt(t,0,l),n=function(t,n,e){for(var r,i,u,o=t.length-1,a={},l=0;l<=o;l++)(r=t[l]).e&&(r.e=n(r.e)),r.v&&"g"===(i=r.v).t&&i.r&&(u=e.getElementById(i.r))&&(a[i.r]={e:u,s:u.querySelectorAll("stop")});return a}(t,i,l),function(i){var u=r(i,t,tn);if(!u)return"none";if("c"===u.t)return bt(u.v);if("g"===u.t){if(!n[u.r])return At(u.r);var o=n[u.r];return function(t,n){for(var e=t.s,r=e.length;r<n.length;r++){var i=e[e.length-1].cloneNode();i.id=rn(i.id),t.e.appendChild(i),e=t.s=t.e.querySelectorAll("stop")}for(var u=0,o=e.length,a=n.length-1;u<o;u++)e[u].setAttribute("stop-color",bt(n[Math.min(u,a)].c)),e[u].setAttribute("offset",n[Math.min(u,a)].o)}(o,u.s),Object.keys(Wt).forEach((function(t){if(void 0!==u[t])if("object"!==e(Wt[t])){var n,r="gt"===t?(n=u[t],Array.isArray(n)?"matrix("+n.join(" ")+")":""):u[t],i=Wt[t];o.e.setAttribute(i,r)}else Object.keys(Wt[t]).forEach((function(n){if(void 0!==u[t][n]){var e=u[t][n],r=Wt[t][n];o.e.setAttribute(r,e)}}))})),At(u.r)}return"none"}}function tn(t,e,r){if(0===t)return e;if(1===t)return r;if(e&&r){var i=e.t;if(i===r.t)switch(e.t){case"c":return{t:i,v:z(t,e.v,r.v)};case"g":if(e.r===r.r){var u={t:i,s:nn(t,e.s,r.s),r:e.r};return e.gt&&r.gt&&(u.gt=Y(t,e.gt,r.gt)),e.c?(u.c=C(t,e.c,r.c),u.rd=D(t,e.rd,r.rd)):e.f&&(u.f=C(t,e.f,r.f),u.to=C(t,e.to,r.to)),u}}if("c"===e.t&&"g"===r.t||"c"===r.t&&"g"===e.t){var o="c"===e.t?e:r,a="g"===e.t?n({},e):n({},r),l=a.s.map((function(t){return{c:o.v,o:t.o}}));return a.s="c"===e.t?nn(t,l,a.s):nn(t,a.s,l),a}}return T(t,e,r)}function nn(t,n,e){if(n.length===e.length)return n.map((function(n,r){return en(t,n,e[r])}));for(var r=Math.max(n.length,e.length),i=[],u=0;u<r;u++){var o=en(t,n[Math.min(u,n.length-1)],e[Math.min(u,e.length-1)]);i.push(o)}return i}function en(t,n,e){return{o:L(t,n.o,e.o||0),c:z(t,n.c,e.c||{})}}function rn(t){return t.replace(/-fill-([0-9]+)$/,(function(t,n){return"-fill-"+(+n+1)}))}function un(t,n,e){return 0===t?n:1===t?e:{blur:V(t,n.blur,e.blur),offset:C(t,n.offset,e.offset),color:z(t,n.color,e.color)}}var on={blur:V,brightness:D,contrast:D,"drop-shadow":un,"inner-shadow":un,grayscale:D,"hue-rotate":q,invert:D,opacity:D,saturate:D,sepia:D};function an(t,n,e){if(0===t)return n;if(1===t)return e;var r=n.length;if(r!==e.length)return T(t,n,e);for(var i,u=[],o=0;o<r;o++){if(n[o].type!==e[o].type)return n;if(!(i=on[n[o].type]))return T(t,n,e);u.push({type:n.type,value:i(t,n[o].value,e[o].value)})}return u}var ln={blur:function(t){return t?function(n){t.setAttribute("stdDeviation",mt(n))}:null},brightness:function(t,n,e){return(t=sn(e,n))?function(n){n=dt(n),t.map((function(t){return t.setAttribute("slope",n)}))}:null},contrast:function(t,n,e){return(t=sn(e,n))?function(n){var e=dt((1-n)/2);n=dt(n),t.map((function(t){t.setAttribute("slope",n),t.setAttribute("intercept",e)}))}:null},"drop-shadow":function(t,n,e){var r=e.getElementById(n+"-blur");if(!r)return null;var i=e.getElementById(n+"-offset");if(!i)return null;var u=e.getElementById(n+"-flood");return u?function(t){r.setAttribute("stdDeviation",mt(t.blur)),i.setAttribute("dx",dt(t.offset.x)),i.setAttribute("dy",dt(t.offset.y)),u.setAttribute("flood-color",bt(t.color))}:null},"inner-shadow":function(t,n,e){var r=e.getElementById(n+"-blur");if(!r)return null;var i=e.getElementById(n+"-offset");if(!i)return null;var u=e.getElementById(n+"-color-matrix");return u?function(t){r.setAttribute("stdDeviation",mt(t.blur)),i.setAttribute("dx",dt(t.offset.x)),i.setAttribute("dy",dt(t.offset.y));var n=[0,0,0,0,t.color.r/255,0,0,0,0,t.color.g/255,0,0,0,0,t.color.b/255,0,0,0,t.color.a,0];u.setAttribute("values",pt(n))}:null},grayscale:function(t){return t?function(n){t.setAttribute("values",pt(function(t){return[.2126+.7874*(t=1-t),.7152-.7152*t,.0722-.0722*t,0,0,.2126-.2126*t,.7152+.2848*t,.0722-.0722*t,0,0,.2126-.2126*t,.7152-.7152*t,.0722+.9278*t,0,0,0,0,0,1,0]}(n)))}:null},"hue-rotate":function(t){return t?function(n){return t.setAttribute("values",dt(n))}:null},invert:function(t,n,e){return(t=sn(e,n))?function(n){n=dt(n)+" "+dt(1-n),t.map((function(t){return t.setAttribute("tableValues",n)}))}:null},opacity:function(t,n,e){return(t=e.getElementById(n+"-A"))?function(n){return t.setAttribute("tableValues","0 "+dt(n))}:null},saturate:function(t){return t?function(n){return t.setAttribute("values",dt(n))}:null},sepia:function(t){return t?function(n){return t.setAttribute("values",pt(function(t){return[.393+.607*(t=1-t),.769-.769*t,.189-.189*t,0,0,.349-.349*t,.686+.314*t,.168-.168*t,0,0,.272-.272*t,.534-.534*t,.131+.869*t,0,0,0,0,0,1,0]}(n)))}:null}};var fn=["R","G","B"];function sn(t,n){var e=fn.map((function(e){return t.getElementById(n+"-"+e)||null}));return-1!==e.indexOf(null)?null:e}var cn={fill:Xt,"fill-opacity":Jt,stroke:Xt,"stroke-opacity":Jt,"stroke-width":Ht,"stroke-dashoffset":{f:dt,i:q},"stroke-dasharray":Zt,opacity:Jt,transform:function(t,n,r,i){if(!(t=function(t,n){if(!t||"object"!==e(t))return null;var r=!1;for(var i in t)t.hasOwnProperty(i)&&(t[i]&&t[i].length?(t[i].forEach((function(t){t.e&&(t.e=n(t.e))})),r=!0):delete t[i]);return r?t:null}(t,i)))return null;var u=function(e,i,u){var o=arguments.length>3&&void 0!==arguments[3]?arguments[3]:null;return t[e]?r(i,t[e],u):n&&n[e]?n[e]:o};return n&&n.a&&t.o?function(n){var e=r(n,t.o,Vt);return $t.recomposeSelf(e,u("r",n,q,0)+e.a,u("k",n,C),u("s",n,C),u("t",n,C)).toString()}:function(t){return $t.recomposeSelf(u("o",t,Ct,null),u("r",t,q,0),u("k",t,C),u("s",t,C),u("t",t,C)).toString()}},"#filter":function(t,n,e,r,i,u,o,a){if(!n.items||!t||!t.length)return null;var l=function(t,n){var e=(t=t.map((function(t){return t&&ln[t[0]]?(n.getElementById(t[1]),ln[t[0]](n.getElementById(t[1]),t[1],n)):null}))).length;return function(n){for(var r=0;r<e;r++)t[r]&&t[r](n[r].value)}}(n.items,a);return l?(t=function(t,n){return t.map((function(t){return t.e=n(t.e),t}))}(t,r),function(n){l(e(n,t,an))}):null},"#line":Qt,points:{f:pt,i:Y},d:Ut,r:Ht,"#size":xt,"#radius":wt,_:function(t,n){if(Array.isArray(t))for(var e=0;e<t.length;e++)this[t[e]]=n;else this[t]=n}},hn=function(t){!function(t,n){if("function"!=typeof n&&null!==n)throw new TypeError("Super expression must either be null or a function");t.prototype=Object.create(n&&n.prototype,{constructor:{value:t,writable:!0,configurable:!0}}),n&&l(t,n)}(o,t);var n,e,i=(n=o,e=f(),function(){var t,r=a(n);if(e){var i=a(this).constructor;t=Reflect.construct(r,arguments,i)}else t=r.apply(this,arguments);return c(this,t)});function o(){return r(this,o),i.apply(this,arguments)}return u(o,null,[{key:"build",value:function(t){var n=h(a(o),"build",this).call(this,t,cn);if(!n)return null;n.el,n.options,function(t,n,e){t.play()}(n.player)}}]),o}(gt);return hn.init(),hn}));
(function(s,i,o,w,d,a,b){w[o]=w[o]||{};w[o][s]=w[o][s]||[];w[o][s].push(i);})('7c8cb2ed',{"root":"e8leVkyFGOB1","version":"2022-05-04","animations":[{"elements":{"e8leVkyFGOB3":{"stroke-dashoffset":[{"t":0,"v":673.5},{"t":780,"v":0}]},"e8leVkyFGOB4":{"stroke-dashoffset":[{"t":0,"v":878.93},{"t":1600,"v":0,"e":[0.42,0,0.58,1]}]},"e8leVkyFGOB12":{"opacity":[{"t":0,"v":0.22},{"t":1200,"v":1}]},"e8leVkyFGOB13":{"opacity":[{"t":0,"v":0.22},{"t":1200,"v":1}]},"e8leVkyFGOB14":{"opacity":[{"t":0,"v":0.22},{"t":1200,"v":1}]},"e8leVkyFGOB15":{"opacity":[{"t":0,"v":0.22},{"t":1200,"v":1}]},"e8leVkyFGOB16":{"opacity":[{"t":0,"v":0.22},{"t":1200,"v":1}]},"e8leVkyFGOB18":{"opacity":[{"t":0,"v":0.22},{"t":1200,"v":1}]},"e8leVkyFGOB19":{"opacity":[{"t":0,"v":0.32},{"t":1200,"v":1}]},"e8leVkyFGOB23":{"opacity":[{"t":0,"v":0.22},{"t":1200,"v":1}]},"e8leVkyFGOB24":{"opacity":[{"t":0,"v":0.22},{"t":1200,"v":1}]},"e8leVkyFGOB25":{"opacity":[{"t":0,"v":0.22},{"t":1200,"v":1}]},"e8leVkyFGOB26":{"opacity":[{"t":0,"v":0.22},{"t":1200,"v":1}]},"e8leVkyFGOB27":{"opacity":[{"t":0,"v":0.22},{"t":1200,"v":1}]},"e8leVkyFGOB28":{"opacity":[{"t":0,"v":0.22},{"t":1200,"v":1}]},"e8leVkyFGOB29":{"opacity":[{"t":0,"v":0.22},{"t":1200,"v":1}]},"e8leVkyFGOB30":{"opacity":[{"t":0,"v":0.22},{"t":1200,"v":1}]},"e8leVkyFGOB31":{"opacity":[{"t":0,"v":0.22},{"t":1200,"v":1}]},"e8leVkyFGOB32":{"opacity":[{"t":0,"v":0.22},{"t":1200,"v":1}]},"e8leVkyFGOB33":{"opacity":[{"t":0,"v":0.22},{"t":1200,"v":1}]},"e8leVkyFGOB34":{"opacity":[{"t":0,"v":0.22},{"t":1200,"v":1}]},"e8leVkyFGOB35":{"opacity":[{"t":0,"v":0.22},{"t":1200,"v":1}]},"e8leVkyFGOB37":{"opacity":[{"t":0,"v":0.22},{"t":1200,"v":1}]},"e8leVkyFGOB38":{"opacity":[{"t":0,"v":0.22},{"t":1200,"v":1}]},"e8leVkyFGOB39":{"opacity":[{"t":0,"v":0.22},{"t":1200,"v":1}]},"e8leVkyFGOB42":{"opacity":[{"t":0,"v":0.22},{"t":1200,"v":1}]},"e8leVkyFGOB45":{"opacity":[{"t":0,"v":0},{"t":1200,"v":1}],"stroke-dashoffset":[{"t":0,"v":263.46},{"t":1200,"v":0}]}},"s":"MDA1YZGI4NWZhMWIyYWY5ZWIxYTZhUY2FiNWY3NzcwNmQ2ZEE2ZDY5HNWZhMWE2YWZhMmEwYjFhNmFjXTGFiNWY3NzZlNjk1ZmE2YjFhDMmFmVDllYjFhNmFjQ2FiYjA1UZjc3NmVONjlNNWZhM2E2YTlVUYTk1Zjc3WDZlNjk1ZjllYTlROYjFhMmFmYWI5ZWIxYTI1ZkE3EN2EzOWVZYTliMGEyNjk1ZmIwTYWRhMmEyYTE1Zjc3NmU2OTVmJYTNhZGIwNWY3NzZlNmQ2ZGJhV"}],"options":"MDAxSMDhmMzY4Nzg4NzU4Njg4MzY0RZTM2TjgwODM3NTc4MzY5MQ|"},'__SVGATOR_PLAYER__',window,document)
]]></script>
</svg>
